<svg width="238" height="64" viewBox="0 0 238 64" fill="none" xmlns="http://www.w3.org/2000/svg">
<path d="M10.4425 30.24C8.97578 30.24 7.74245 30.16 6.74245 30C5.74245 29.84 4.92912 29.58 4.30245 29.22C3.68912 28.8467 3.24245 28.3667 2.96245 27.78C2.69578 27.1933 2.56245 26.4667 2.56245 25.6C2.56245 25.0667 2.62912 24.48 2.76245 23.84C2.90912 23.2 3.10912 22.5667 3.36245 21.94L5.28245 22.5C5.05578 22.9533 4.87578 23.3933 4.74245 23.82C4.62245 24.2333 4.56245 24.6067 4.56245 24.94C4.56245 25.3267 4.64245 25.6533 4.80245 25.92C4.96245 26.1733 5.22245 26.38 5.58245 26.54C5.94245 26.7 6.41578 26.82 7.00245 26.9C7.58912 26.9667 8.31578 27 9.18245 27H12.0625C14.0358 27 15.5025 26.88 16.4625 26.64C17.4358 26.4 17.9225 25.9133 17.9225 25.18V24.26H17.8025C17.4158 25.3133 16.5291 25.84 15.1425 25.84C14.0625 25.84 13.2158 25.56 12.6025 25C12.0025 24.4267 11.7025 23.64 11.7025 22.64C11.7025 21.9467 11.8025 21.3067 12.0025 20.72C12.2158 20.12 12.5025 19.6067 12.8625 19.18C13.2358 18.74 13.6691 18.4 14.1625 18.16C14.6691 17.9067 15.2158 17.78 15.8025 17.78C17.1091 17.78 18.1225 18.3267 18.8425 19.42C19.5758 20.5133 19.9425 22.0333 19.9425 23.98C19.9425 25.2333 19.8025 26.2667 19.5225 27.08C19.2425 27.88 18.7491 28.52 18.0425 29C17.3358 29.4667 16.3625 29.7933 15.1225 29.98C13.8958 30.1533 12.3358 30.24 10.4425 30.24ZM15.7625 23.24C16.2691 23.24 16.6958 23.22 17.0425 23.18C17.3891 23.1267 17.6691 23.0467 17.8825 22.94C17.8025 22.2867 17.5425 21.7667 17.1025 21.38C16.6758 20.98 16.1558 20.78 15.5425 20.78C15.0225 20.78 14.5825 20.92 14.2225 21.2C13.8758 21.4667 13.7025 21.8133 13.7025 22.24C13.7025 22.6 13.8491 22.86 14.1425 23.02C14.4358 23.1667 14.8358 23.24 15.3425 23.24H15.7625ZM15.6025 16.18C15.2558 16.18 14.9691 16.0733 14.7425 15.86C14.5291 15.6467 14.4225 15.3067 14.4225 14.84C14.4225 14.3733 14.5291 14.0333 14.7425 13.82C14.9691 13.6067 15.2558 13.5 15.6025 13.5H16.0025C16.3491 13.5 16.6291 13.6067 16.8425 13.82C17.0691 14.0333 17.1825 14.3733 17.1825 14.84C17.1825 15.3067 17.0691 15.6467 16.8425 15.86C16.6291 16.0733 16.3491 16.18 16.0025 16.18H15.6025ZM19.4492 31.8H20.2492C21.4625 31.8 22.3492 31.5533 22.9092 31.06C23.4825 30.5667 23.7625 29.7467 23.7492 28.6C23.7492 28.2933 23.7292 27.9733 23.6892 27.64C23.6492 27.2933 23.5958 26.9267 23.5292 26.54L23.1092 23.88L25.2892 23.54L25.5892 25.4C25.6425 25.6933 25.6825 25.9733 25.7092 26.24C25.7492 26.5067 25.7825 26.76 25.8092 27H27.6492V29.4L27.0492 30H25.8092C25.5825 31.48 24.9958 32.6467 24.0492 33.5C23.1158 34.3667 21.8558 34.8 20.2692 34.8H19.4492V31.8ZM27.0414 27.6L27.6414 27H29.7814V29.4L29.1814 30H27.0414V27.6ZM29.1898 27.6L29.7898 27H31.9298V29.4L31.3298 30H29.1898V27.6ZM31.3382 27.6L31.9382 27H34.0782V29.4L33.4782 30H31.3382V27.6ZM33.4867 27.6L34.0867 27H36.6867L36.7267 26.9L34.7867 24.52V21.42C35.4533 21.1133 36.1533 20.88 36.8867 20.72C37.6333 20.5467 38.36 20.46 39.0667 20.46C40.6133 20.46 41.7467 20.7333 42.4667 21.28C43.1867 21.8267 43.5467 22.6867 43.5467 23.86C43.5467 24.22 43.5133 24.54 43.4467 24.82C43.38 25.0867 43.2733 25.34 43.1267 25.58C42.9933 25.8067 42.8133 26.0267 42.5867 26.24C42.3733 26.4533 42.1067 26.6867 41.7867 26.94L41.8067 27H44.2467V29.4L43.6467 30H43.4467C42.7267 30 41.98 29.92 41.2067 29.76C40.4467 29.5867 39.76 29.3067 39.1467 28.92C38.5333 29.3067 37.8867 29.5867 37.2067 29.76C36.5267 29.92 35.8267 30 35.1067 30H33.4867V27.6ZM36.7067 23.84L39.3067 26.9L40.5267 25.9C40.7133 25.74 40.8733 25.6067 41.0067 25.5C41.14 25.3933 41.2467 25.2933 41.3267 25.2C41.4067 25.0933 41.46 24.9933 41.4867 24.9C41.5267 24.7933 41.5467 24.6667 41.5467 24.52C41.5467 24.1333 41.36 23.86 40.9867 23.7C40.6267 23.54 39.9867 23.46 39.0667 23.46C38.6533 23.46 38.2333 23.4867 37.8067 23.54C37.38 23.5933 37.0133 23.6533 36.7067 23.72V23.84ZM38.8667 18.86C38.52 18.86 38.2333 18.7533 38.0067 18.54C37.7933 18.3267 37.6867 17.9867 37.6867 17.52C37.6867 17.0533 37.7933 16.7133 38.0067 16.5C38.2333 16.2867 38.52 16.18 38.8667 16.18H39.2667C39.6133 16.18 39.8933 16.2867 40.1067 16.5C40.3333 16.7133 40.4467 17.0533 40.4467 17.52C40.4467 17.9867 40.3333 18.3267 40.1067 18.54C39.8933 18.7533 39.6133 18.86 39.2667 18.86H38.8667ZM43.6429 27.6L44.2429 27H45.1229C45.6296 27 45.9629 26.9067 46.1229 26.72C46.2963 26.52 46.3829 26.2133 46.3829 25.8V15.2H48.7829V25.8C48.7829 27.2267 48.5029 28.28 47.9429 28.96C47.3963 29.64 46.4563 29.9867 45.1229 30H43.6429V27.6ZM51.1851 15.2H53.5851V30H51.1851V15.2ZM68.1364 30.24C66.683 30.24 65.4564 30.16 64.4564 30C63.4697 29.84 62.6697 29.58 62.0564 29.22C61.443 28.8467 60.9964 28.3667 60.7164 27.78C60.4497 27.1933 60.3164 26.4667 60.3164 25.6C60.3164 25.0667 60.383 24.48 60.5164 23.84C60.663 23.2 60.863 22.5667 61.1164 21.94L63.0364 22.5C62.8097 22.9533 62.6297 23.3933 62.4964 23.82C62.3764 24.2333 62.3164 24.6067 62.3164 24.94C62.3164 25.3267 62.3964 25.6533 62.5564 25.92C62.7164 26.1733 62.9764 26.38 63.3364 26.54C63.6964 26.7 64.1697 26.82 64.7564 26.9C65.343 26.9667 66.0697 27 66.9364 27H69.7364C70.6164 27 71.3564 26.98 71.9564 26.94C72.5564 26.9 73.0364 26.8333 73.3964 26.74C73.7697 26.6333 74.0364 26.5067 74.1964 26.36C74.3697 26.2 74.4564 26.0067 74.4564 25.78C74.4564 25.58 74.4364 25.3267 74.3964 25.02C74.3697 24.7 74.3097 24.2867 74.2164 23.78L73.8764 21.92L76.0564 21.56L76.3564 23.42C76.423 23.78 76.4764 24.18 76.5164 24.62C76.5564 25.06 76.5764 25.4467 76.5764 25.78C76.5764 26.6733 76.4497 27.4067 76.1964 27.98C75.9564 28.5533 75.5164 29.0067 74.8764 29.34C74.2497 29.6733 73.3897 29.9067 72.2964 30.04C71.2164 30.1733 69.8297 30.24 68.1364 30.24ZM69.6964 22.74C69.3497 22.74 69.063 22.6333 68.8364 22.42C68.623 22.2067 68.5164 21.8667 68.5164 21.4C68.5164 20.9333 68.623 20.5933 68.8364 20.38C69.063 20.1667 69.3497 20.06 69.6964 20.06H70.0964C70.443 20.06 70.723 20.1667 70.9364 20.38C71.163 20.5933 71.2764 20.9333 71.2764 21.4C71.2764 21.8667 71.163 22.2067 70.9364 22.42C70.723 22.6333 70.443 22.74 70.0964 22.74H69.6964ZM66.5364 22.74C66.1897 22.74 65.903 22.6333 65.6764 22.42C65.463 22.2067 65.3564 21.8667 65.3564 21.4C65.3564 20.9333 65.463 20.5933 65.6764 20.38C65.903 20.1667 66.1897 20.06 66.5364 20.06H66.9364C67.283 20.06 67.563 20.1667 67.7764 20.38C68.003 20.5933 68.1164 20.9333 68.1164 21.4C68.1164 21.8667 68.003 22.2067 67.7764 22.42C67.563 22.6333 67.283 22.74 66.9364 22.74H66.5364ZM82.3526 30C81.0059 30 80.0059 29.68 79.3526 29.04C78.6993 28.4 78.3726 27.36 78.3726 25.92V15.2H80.7726V25.52C80.7726 26.12 80.8926 26.52 81.1326 26.72C81.3726 26.9067 81.7859 27 82.3726 27H82.9726V29.4L82.3726 30H82.3526ZM82.3734 27.6L82.9734 27H85.1134V29.4L84.5134 30H82.3734V27.6ZM84.5218 27.6L85.1218 27H87.2618V29.4L86.6618 30H84.5218V27.6ZM89.6103 28.88C89.3036 29.2933 88.9169 29.5867 88.4503 29.76C87.9969 29.92 87.4036 30 86.6703 30V27.6L87.2703 27C87.7636 27 88.1236 26.9267 88.3503 26.78C88.5769 26.6333 88.7636 26.3733 88.9103 26L89.4703 24.62C89.6436 24.1933 89.8369 23.7933 90.0503 23.42C90.2636 23.0467 90.5169 22.72 90.8103 22.44C91.1036 22.16 91.4303 21.94 91.7903 21.78C92.1636 21.62 92.5903 21.54 93.0703 21.54C94.3236 21.54 95.2636 22.0333 95.8903 23.02C96.5303 24.0067 96.8503 25.3733 96.8503 27.12V27.7L94.9503 30.52L89.6103 28.88ZM90.7103 26.1L94.7303 27.32V27.12C94.7303 26.32 94.5369 25.6933 94.1503 25.24C93.7636 24.7867 93.2369 24.56 92.5703 24.56C92.1436 24.56 91.7703 24.6733 91.4503 24.9C91.1436 25.1267 90.9103 25.4867 90.7503 25.98L90.7103 26.1ZM101.024 30C100.09 30 99.377 29.7667 98.8837 29.3C98.3904 28.8333 98.1437 28.0867 98.1437 27.06V25.72H100.444V27H103.184C103.624 27 103.944 26.9333 104.144 26.8C104.357 26.6667 104.464 26.4467 104.464 26.14C104.464 25.9933 104.43 25.82 104.364 25.62C104.31 25.42 104.25 25.22 104.184 25.02L102.424 19.96L104.984 19.06L107.004 24.84C107.15 25.28 107.297 25.64 107.444 25.92C107.59 26.2 107.744 26.42 107.904 26.58C108.077 26.74 108.257 26.8533 108.444 26.92C108.644 26.9733 108.877 27 109.144 27H109.744V29.4L109.144 30C108.584 30 108.097 29.96 107.684 29.88C107.27 29.8 106.897 29.6533 106.564 29.44C106.244 29.2267 105.95 28.9467 105.684 28.6C105.43 28.2533 105.184 27.8067 104.944 27.26L104.864 27.3C104.784 27.78 104.67 28.1933 104.524 28.54C104.39 28.8867 104.217 29.1667 104.004 29.38C103.79 29.5933 103.53 29.7533 103.224 29.86C102.917 29.9533 102.55 30 102.124 30H101.024ZM109.151 27.6L109.751 27H111.131C111.877 27 112.544 26.9933 113.131 26.98C113.731 26.9533 114.297 26.9 114.831 26.82C115.364 26.74 115.884 26.62 116.391 26.46C116.897 26.3 117.437 26.08 118.011 25.8L118.751 25.44V25.34L115.551 24.66L112.531 23.92V25.42H110.231V23.88C110.231 22.9333 110.431 22.24 110.831 21.8C111.244 21.36 111.871 21.14 112.711 21.14C112.817 21.14 112.924 21.1467 113.031 21.16C113.151 21.1733 113.284 21.1933 113.431 21.22C113.591 21.2467 113.777 21.2867 113.991 21.34C114.204 21.3933 114.471 21.46 114.791 21.54L118.651 22.54C119.184 22.6867 119.757 22.8 120.371 22.88C120.984 22.96 121.591 23 122.191 23H122.591V26H121.031L119.151 27.28C118.271 27.88 117.477 28.36 116.771 28.72C116.077 29.0667 115.417 29.34 114.791 29.54C114.164 29.7267 113.557 29.8533 112.971 29.92C112.384 29.9733 111.771 30 111.131 30H109.151V27.6ZM115.031 19.54C114.684 19.54 114.397 19.4333 114.171 19.22C113.957 19.0067 113.851 18.6667 113.851 18.2C113.851 17.7333 113.957 17.3933 114.171 17.18C114.397 16.9667 114.684 16.86 115.031 16.86H115.431C115.777 16.86 116.057 16.9667 116.271 17.18C116.497 17.3933 116.611 17.7333 116.611 18.2C116.611 18.6667 116.497 19.0067 116.271 19.22C116.057 19.4333 115.777 19.54 115.431 19.54H115.031ZM137.719 30C136.506 29.9867 135.619 29.6933 135.059 29.12C134.499 28.5333 134.219 27.7333 134.219 26.72V26.62H134.099C133.993 27.0867 133.866 27.48 133.719 27.8C133.586 28.12 133.413 28.38 133.199 28.58C132.986 28.7667 132.733 28.9067 132.439 29C132.146 29.08 131.799 29.12 131.399 29.12C130.439 29.12 129.719 28.8667 129.239 28.36C128.759 27.84 128.519 27.1133 128.519 26.18C128.519 25.0867 128.819 24.2 129.419 23.52C130.033 22.8267 130.853 22.2267 131.879 21.72L134.119 20.6V19.5H136.519V25.92C136.519 26.32 136.606 26.6 136.779 26.76C136.966 26.92 137.279 27 137.719 27H138.319V29.4L137.719 30ZM132.059 26.12C132.833 26.12 133.366 26.0467 133.659 25.9C133.966 25.7533 134.119 25.4867 134.119 25.1V22.7L132.639 23.4C132.279 23.5733 131.966 23.7267 131.699 23.86C131.446 23.9933 131.226 24.1333 131.039 24.28C130.866 24.4133 130.733 24.5533 130.639 24.7C130.559 24.8467 130.519 25.0133 130.519 25.2C130.519 25.5333 130.626 25.7733 130.839 25.92C131.066 26.0533 131.473 26.12 132.059 26.12ZM135.139 17.9C134.793 17.9 134.506 17.7933 134.279 17.58C134.066 17.3667 133.959 17.0267 133.959 16.56C133.959 16.0933 134.066 15.7533 134.279 15.54C134.506 15.3267 134.793 15.22 135.139 15.22H135.539C135.886 15.22 136.166 15.3267 136.379 15.54C136.606 15.7533 136.719 16.0933 136.719 16.56C136.719 17.0267 136.606 17.3667 136.379 17.58C136.166 17.7933 135.886 17.9 135.539 17.9H135.139ZM131.979 17.9C131.633 17.9 131.346 17.7933 131.119 17.58C130.906 17.3667 130.799 17.0267 130.799 16.56C130.799 16.0933 130.906 15.7533 131.119 15.54C131.346 15.3267 131.633 15.22 131.979 15.22H132.379C132.726 15.22 133.006 15.3267 133.219 15.54C133.446 15.7533 133.559 16.0933 133.559 16.56C133.559 17.0267 133.446 17.3667 133.219 17.58C133.006 17.7933 132.726 17.9 132.379 17.9H131.979ZM137.725 27.6L138.325 27H140.465V29.4L139.865 30H137.725V27.6ZM139.873 27.6L140.473 27H142.613V29.4L142.013 30H139.873V27.6ZM142.022 27.6L142.622 27H143.202C143.682 27 144.075 26.98 144.382 26.94C144.702 26.9 144.955 26.8333 145.142 26.74C145.342 26.6333 145.475 26.5067 145.542 26.36C145.622 26.2 145.662 26.0067 145.662 25.78C145.662 25.58 145.642 25.3267 145.602 25.02C145.575 24.7 145.515 24.2867 145.422 23.78L145.082 21.92L147.262 21.56L147.562 23.42C147.628 23.78 147.682 24.18 147.722 24.62C147.762 25.06 147.782 25.4467 147.782 25.78C147.782 27.2333 147.422 28.3 146.702 28.98C145.995 29.66 144.828 30 143.202 30H142.022V27.6ZM145.522 34.3C145.175 34.3 144.888 34.1933 144.662 33.98C144.448 33.7667 144.342 33.4267 144.342 32.96C144.342 32.4933 144.448 32.1533 144.662 31.94C144.888 31.7267 145.175 31.62 145.522 31.62H145.922C146.268 31.62 146.548 31.7267 146.762 31.94C146.988 32.1533 147.102 32.4933 147.102 32.96C147.102 33.4267 146.988 33.7667 146.762 33.98C146.548 34.1933 146.268 34.3 145.922 34.3H145.522ZM149.584 15.2H151.984V30H149.584V15.2ZM153.788 31.8H155.068C156.335 31.8 157.348 31.64 158.108 31.32C158.882 31 159.428 30.56 159.748 30H157.428C156.348 30 155.502 29.6867 154.888 29.06C154.288 28.42 153.988 27.5333 153.988 26.4C153.988 25.7067 154.088 25.0667 154.288 24.48C154.502 23.88 154.788 23.3667 155.148 22.94C155.522 22.5 155.955 22.16 156.448 21.92C156.955 21.6667 157.502 21.54 158.088 21.54C159.302 21.54 160.262 22.02 160.968 22.98C161.675 23.94 162.062 25.28 162.128 27H163.148V29.4L162.548 30H161.868C161.495 31.5333 160.755 32.7133 159.648 33.54C158.555 34.38 157.095 34.8 155.268 34.8H153.788V31.8ZM155.988 26C155.988 26.36 156.135 26.62 156.428 26.78C156.722 26.9267 157.122 27 157.628 27H160.128V26.94C160.128 26.22 159.908 25.64 159.468 25.2C159.042 24.76 158.495 24.54 157.828 24.54C157.308 24.54 156.868 24.68 156.508 24.96C156.162 25.2267 155.988 25.5733 155.988 26ZM162.549 27.6L163.149 27H163.729C164.209 27 164.603 26.98 164.909 26.94C165.229 26.9 165.483 26.8333 165.669 26.74C165.869 26.6333 166.003 26.5067 166.069 26.36C166.149 26.2 166.189 26.0067 166.189 25.78C166.189 25.58 166.169 25.3267 166.129 25.02C166.103 24.7 166.043 24.2867 165.949 23.78L165.609 21.92L167.789 21.56L168.089 23.42C168.156 23.78 168.209 24.18 168.249 24.62C168.289 25.06 168.309 25.4467 168.309 25.78C168.309 27.2333 167.949 28.3 167.229 28.98C166.523 29.66 165.356 30 163.729 30H162.549V27.6ZM166.049 34.3C165.703 34.3 165.416 34.1933 165.189 33.98C164.976 33.7667 164.869 33.4267 164.869 32.96C164.869 32.4933 164.976 32.1533 165.189 31.94C165.416 31.7267 165.703 31.62 166.049 31.62H166.449C166.796 31.62 167.076 31.7267 167.289 31.94C167.516 32.1533 167.629 32.4933 167.629 32.96C167.629 33.4267 167.516 33.7667 167.289 33.98C167.076 34.1933 166.796 34.3 166.449 34.3H166.049Z" fill="#1C242F"/>
<path d="M5.09861 48.144C4.00261 48.144 3.14261 47.776 2.51861 47.04C1.89461 46.296 1.58261 45.22 1.58261 43.812C1.58261 43.108 1.66261 42.488 1.82261 41.952C1.98261 41.416 2.21461 40.964 2.51861 40.596C2.82261 40.228 3.19061 39.952 3.62261 39.768C4.06261 39.576 4.55461 39.48 5.09861 39.48C5.82661 39.48 6.43461 39.64 6.92261 39.96C7.41861 40.28 7.80661 40.752 8.08661 41.376L6.94661 42C6.80261 41.6 6.57861 41.284 6.27461 41.052C5.97861 40.812 5.58661 40.692 5.09861 40.692C4.45061 40.692 3.94261 40.912 3.57461 41.352C3.20661 41.792 3.02261 42.4 3.02261 43.176V44.448C3.02261 45.224 3.20661 45.832 3.57461 46.272C3.94261 46.712 4.45061 46.932 5.09861 46.932C5.60261 46.932 6.01061 46.804 6.32261 46.548C6.64261 46.284 6.87861 45.948 7.03061 45.54L8.12261 46.2C7.84261 46.808 7.45061 47.284 6.94661 47.628C6.44261 47.972 5.82661 48.144 5.09861 48.144ZM10.0641 39.12H11.3721V42.792H11.4321C11.5681 42.456 11.7721 42.176 12.0441 41.952C12.3241 41.728 12.7041 41.616 13.1841 41.616C13.8241 41.616 14.3201 41.828 14.6721 42.252C15.0321 42.668 15.2121 43.264 15.2121 44.04V48H13.9041V44.196C13.9041 43.228 13.5121 42.744 12.7281 42.744C12.5601 42.744 12.3921 42.768 12.2241 42.816C12.0641 42.856 11.9201 42.92 11.7921 43.008C11.6641 43.096 11.5601 43.208 11.4801 43.344C11.4081 43.48 11.3721 43.636 11.3721 43.812V48H10.0641V39.12ZM22.197 48C21.853 48 21.589 47.904 21.405 47.712C21.221 47.512 21.109 47.26 21.069 46.956H21.009C20.889 47.348 20.669 47.644 20.349 47.844C20.029 48.044 19.641 48.144 19.185 48.144C18.537 48.144 18.037 47.976 17.685 47.64C17.341 47.304 17.169 46.852 17.169 46.284C17.169 45.66 17.393 45.192 17.841 44.88C18.297 44.568 18.961 44.412 19.833 44.412H20.961V43.884C20.961 43.5 20.857 43.204 20.649 42.996C20.441 42.788 20.117 42.684 19.677 42.684C19.309 42.684 19.009 42.764 18.777 42.924C18.545 43.084 18.349 43.288 18.189 43.536L17.409 42.828C17.617 42.476 17.909 42.188 18.285 41.964C18.661 41.732 19.153 41.616 19.761 41.616C20.569 41.616 21.189 41.804 21.621 42.18C22.053 42.556 22.269 43.096 22.269 43.8V46.932H22.929V48H22.197ZM19.557 47.148C19.965 47.148 20.301 47.06 20.565 46.884C20.829 46.7 20.961 46.456 20.961 46.152V45.252H19.857C18.953 45.252 18.501 45.532 18.501 46.092V46.308C18.501 46.588 18.593 46.8 18.777 46.944C18.969 47.08 19.229 47.148 19.557 47.148ZM24.811 48V41.76H26.119V42.792H26.179C26.243 42.632 26.319 42.48 26.407 42.336C26.503 42.192 26.615 42.068 26.743 41.964C26.879 41.852 27.035 41.768 27.211 41.712C27.395 41.648 27.607 41.616 27.847 41.616C28.271 41.616 28.647 41.72 28.975 41.928C29.303 42.136 29.543 42.456 29.695 42.888H29.731C29.843 42.536 30.059 42.236 30.379 41.988C30.699 41.74 31.111 41.616 31.615 41.616C32.239 41.616 32.723 41.828 33.067 42.252C33.411 42.668 33.583 43.264 33.583 44.04V48H32.275V44.196C32.275 43.716 32.183 43.356 31.999 43.116C31.815 42.868 31.523 42.744 31.123 42.744C30.955 42.744 30.795 42.768 30.643 42.816C30.491 42.856 30.355 42.92 30.235 43.008C30.123 43.096 30.031 43.208 29.959 43.344C29.887 43.48 29.851 43.636 29.851 43.812V48H28.543V44.196C28.543 43.228 28.163 42.744 27.403 42.744C27.243 42.744 27.083 42.768 26.923 42.816C26.771 42.856 26.635 42.92 26.515 43.008C26.395 43.096 26.299 43.208 26.227 43.344C26.155 43.48 26.119 43.636 26.119 43.812V48H24.811ZM35.993 39.12H37.301V42.792H37.361C37.497 42.416 37.717 42.128 38.021 41.928C38.333 41.72 38.697 41.616 39.113 41.616C39.905 41.616 40.517 41.904 40.949 42.48C41.381 43.048 41.597 43.848 41.597 44.88C41.597 45.912 41.381 46.716 40.949 47.292C40.517 47.86 39.905 48.144 39.113 48.144C38.697 48.144 38.333 48.04 38.021 47.832C37.717 47.624 37.497 47.336 37.361 46.968H37.301V48H35.993V39.12ZM38.717 47.016C39.173 47.016 39.537 46.872 39.809 46.584C40.081 46.288 40.217 45.9 40.217 45.42V44.34C40.217 43.86 40.081 43.476 39.809 43.188C39.537 42.892 39.173 42.744 38.717 42.744C38.317 42.744 37.981 42.844 37.709 43.044C37.437 43.236 37.301 43.492 37.301 43.812V45.948C37.301 46.268 37.437 46.528 37.709 46.728C37.981 46.92 38.317 47.016 38.717 47.016ZM46.1425 48.144C45.6945 48.144 45.2945 48.068 44.9425 47.916C44.5905 47.764 44.2905 47.548 44.0425 47.268C43.7945 46.98 43.6025 46.636 43.4665 46.236C43.3385 45.828 43.2745 45.376 43.2745 44.88C43.2745 44.384 43.3385 43.936 43.4665 43.536C43.6025 43.128 43.7945 42.784 44.0425 42.504C44.2905 42.216 44.5905 41.996 44.9425 41.844C45.2945 41.692 45.6945 41.616 46.1425 41.616C46.5985 41.616 46.9985 41.696 47.3425 41.856C47.6945 42.016 47.9865 42.24 48.2185 42.528C48.4505 42.808 48.6225 43.136 48.7345 43.512C48.8545 43.888 48.9145 44.292 48.9145 44.724V45.216H44.6305V45.42C44.6305 45.9 44.7705 46.296 45.0505 46.608C45.3385 46.912 45.7465 47.064 46.2745 47.064C46.6585 47.064 46.9825 46.98 47.2465 46.812C47.5105 46.644 47.7345 46.416 47.9185 46.128L48.6865 46.884C48.4545 47.268 48.1185 47.576 47.6785 47.808C47.2385 48.032 46.7265 48.144 46.1425 48.144ZM46.1425 42.636C45.9185 42.636 45.7105 42.676 45.5185 42.756C45.3345 42.836 45.1745 42.948 45.0385 43.092C44.9105 43.236 44.8105 43.408 44.7385 43.608C44.6665 43.808 44.6305 44.028 44.6305 44.268V44.352H47.5345V44.232C47.5345 43.752 47.4105 43.368 47.1625 43.08C46.9145 42.784 46.5745 42.636 46.1425 42.636ZM50.9625 48V41.76H52.2705V42.96H52.3305C52.4185 42.64 52.6025 42.36 52.8825 42.12C53.1625 41.88 53.5505 41.76 54.0465 41.76H54.3945V43.02H53.8785C53.3585 43.02 52.9585 43.104 52.6785 43.272C52.4065 43.44 52.2705 43.688 52.2705 44.016V48H50.9625ZM58.1363 48.144C57.5443 48.144 57.0483 48.04 56.6483 47.832C56.2483 47.624 55.9003 47.336 55.6043 46.968L56.4443 46.2C56.6763 46.48 56.9323 46.7 57.2123 46.86C57.5003 47.012 57.8323 47.088 58.2083 47.088C58.5923 47.088 58.8763 47.016 59.0603 46.872C59.2523 46.72 59.3483 46.512 59.3483 46.248C59.3483 46.048 59.2803 45.88 59.1443 45.744C59.0163 45.6 58.7883 45.508 58.4603 45.468L57.8843 45.396C57.2443 45.316 56.7403 45.132 56.3723 44.844C56.0123 44.548 55.8323 44.112 55.8323 43.536C55.8323 43.232 55.8883 42.964 56.0003 42.732C56.1123 42.492 56.2683 42.292 56.4683 42.132C56.6763 41.964 56.9203 41.836 57.2003 41.748C57.4883 41.66 57.8043 41.616 58.1483 41.616C58.7083 41.616 59.1643 41.704 59.5163 41.88C59.8763 42.056 60.1963 42.3 60.4763 42.612L59.6723 43.38C59.5123 43.188 59.3003 43.024 59.0363 42.888C58.7803 42.744 58.4843 42.672 58.1483 42.672C57.7883 42.672 57.5203 42.744 57.3443 42.888C57.1763 43.032 57.0923 43.22 57.0923 43.452C57.0923 43.692 57.1683 43.872 57.3203 43.992C57.4723 44.112 57.7163 44.2 58.0523 44.256L58.6283 44.328C59.3163 44.432 59.8163 44.636 60.1283 44.94C60.4483 45.236 60.6083 45.636 60.6083 46.14C60.6083 46.444 60.5483 46.72 60.4283 46.968C60.3163 47.208 60.1523 47.416 59.9363 47.592C59.7203 47.768 59.4603 47.904 59.1563 48C58.8523 48.096 58.5123 48.144 58.1363 48.144ZM66.2179 48V39.624H71.5819V40.824H67.5739V43.152H71.2099V44.352H67.5739V46.8H71.5819V48H66.2179ZM73.6432 45.012V43.68H76.9672V45.012H73.6432ZM81.6212 48.144C80.9172 48.144 80.3172 48.016 79.8212 47.76C79.3332 47.504 78.9132 47.16 78.5612 46.728L79.4972 45.852C79.7932 46.212 80.1172 46.484 80.4692 46.668C80.8292 46.852 81.2372 46.944 81.6932 46.944C82.2292 46.944 82.6332 46.824 82.9052 46.584C83.1772 46.344 83.3132 46.02 83.3132 45.612C83.3132 45.284 83.2172 45.024 83.0252 44.832C82.8332 44.64 82.4932 44.496 82.0052 44.4L81.2612 44.268C80.4452 44.116 79.8332 43.848 79.4252 43.464C79.0172 43.08 78.8132 42.552 78.8132 41.88C78.8132 41.512 78.8812 41.18 79.0172 40.884C79.1612 40.58 79.3572 40.328 79.6052 40.128C79.8612 39.92 80.1692 39.76 80.5292 39.648C80.8892 39.536 81.2932 39.48 81.7412 39.48C82.3732 39.48 82.9212 39.592 83.3852 39.816C83.8492 40.032 84.2452 40.348 84.5732 40.764L83.6252 41.604C83.4092 41.324 83.1452 41.1 82.8332 40.932C82.5212 40.764 82.1332 40.68 81.6692 40.68C81.1892 40.68 80.8172 40.776 80.5532 40.968C80.2892 41.16 80.1572 41.44 80.1572 41.808C80.1572 42.16 80.2652 42.424 80.4812 42.6C80.6972 42.768 81.0332 42.896 81.4892 42.984L82.2332 43.14C83.0732 43.3 83.6852 43.572 84.0692 43.956C84.4612 44.34 84.6572 44.868 84.6572 45.54C84.6572 45.932 84.5892 46.288 84.4532 46.608C84.3172 46.928 84.1172 47.204 83.8532 47.436C83.5972 47.66 83.2812 47.836 82.9052 47.964C82.5292 48.084 82.1012 48.144 81.6212 48.144ZM89.2371 48.144C88.7891 48.144 88.3891 48.068 88.0371 47.916C87.6851 47.764 87.3851 47.548 87.1371 47.268C86.8891 46.98 86.6971 46.636 86.5611 46.236C86.4331 45.828 86.3691 45.376 86.3691 44.88C86.3691 44.384 86.4331 43.936 86.5611 43.536C86.6971 43.128 86.8891 42.784 87.1371 42.504C87.3851 42.216 87.6851 41.996 88.0371 41.844C88.3891 41.692 88.7891 41.616 89.2371 41.616C89.6931 41.616 90.0931 41.696 90.4371 41.856C90.7891 42.016 91.0811 42.24 91.3131 42.528C91.5451 42.808 91.7171 43.136 91.8291 43.512C91.9491 43.888 92.0091 44.292 92.0091 44.724V45.216H87.7251V45.42C87.7251 45.9 87.8651 46.296 88.1451 46.608C88.4331 46.912 88.8411 47.064 89.3691 47.064C89.7531 47.064 90.0771 46.98 90.3411 46.812C90.6051 46.644 90.8291 46.416 91.0131 46.128L91.7811 46.884C91.5491 47.268 91.2131 47.576 90.7731 47.808C90.3331 48.032 89.8211 48.144 89.2371 48.144ZM89.2371 42.636C89.0131 42.636 88.8051 42.676 88.6131 42.756C88.4291 42.836 88.2691 42.948 88.1331 43.092C88.0051 43.236 87.9051 43.408 87.8331 43.608C87.7611 43.808 87.7251 44.028 87.7251 44.268V44.352H90.6291V44.232C90.6291 43.752 90.5051 43.368 90.2571 43.08C90.0091 42.784 89.6691 42.636 89.2371 42.636ZM94.057 48V41.76H95.365V42.96H95.425C95.513 42.64 95.697 42.36 95.977 42.12C96.257 41.88 96.645 41.76 97.141 41.76H97.489V43.02H96.973C96.453 43.02 96.053 43.104 95.773 43.272C95.501 43.44 95.365 43.688 95.365 44.016V48H94.057ZM100.712 48L98.5883 41.76H99.8843L100.832 44.604L101.468 46.788H101.54L102.176 44.604L103.148 41.76H104.396L102.248 48H100.712ZM106.757 40.644C106.485 40.644 106.285 40.58 106.157 40.452C106.037 40.324 105.977 40.16 105.977 39.96V39.756C105.977 39.556 106.037 39.392 106.157 39.264C106.285 39.136 106.485 39.072 106.757 39.072C107.029 39.072 107.225 39.136 107.345 39.264C107.465 39.392 107.525 39.556 107.525 39.756V39.96C107.525 40.16 107.465 40.324 107.345 40.452C107.225 40.58 107.029 40.644 106.757 40.644ZM106.097 41.76H107.405V48H106.097V41.76ZM112.285 48.144C111.837 48.144 111.437 48.068 111.085 47.916C110.733 47.764 110.437 47.548 110.197 47.268C109.957 46.98 109.773 46.636 109.645 46.236C109.517 45.828 109.453 45.376 109.453 44.88C109.453 44.384 109.517 43.936 109.645 43.536C109.773 43.128 109.957 42.784 110.197 42.504C110.437 42.216 110.733 41.996 111.085 41.844C111.437 41.692 111.837 41.616 112.285 41.616C112.909 41.616 113.421 41.756 113.821 42.036C114.221 42.316 114.513 42.688 114.697 43.152L113.617 43.656C113.529 43.368 113.373 43.14 113.149 42.972C112.933 42.796 112.645 42.708 112.285 42.708C111.805 42.708 111.441 42.86 111.193 43.164C110.953 43.46 110.833 43.848 110.833 44.328V45.444C110.833 45.924 110.953 46.316 111.193 46.62C111.441 46.916 111.805 47.064 112.285 47.064C112.669 47.064 112.973 46.972 113.197 46.788C113.429 46.596 113.613 46.344 113.749 46.032L114.745 46.56C114.537 47.072 114.225 47.464 113.809 47.736C113.393 48.008 112.885 48.144 112.285 48.144ZM118.968 48.144C118.52 48.144 118.12 48.068 117.768 47.916C117.416 47.764 117.116 47.548 116.868 47.268C116.62 46.98 116.428 46.636 116.292 46.236C116.164 45.828 116.1 45.376 116.1 44.88C116.1 44.384 116.164 43.936 116.292 43.536C116.428 43.128 116.62 42.784 116.868 42.504C117.116 42.216 117.416 41.996 117.768 41.844C118.12 41.692 118.52 41.616 118.968 41.616C119.424 41.616 119.824 41.696 120.168 41.856C120.52 42.016 120.812 42.24 121.044 42.528C121.276 42.808 121.448 43.136 121.56 43.512C121.68 43.888 121.74 44.292 121.74 44.724V45.216H117.456V45.42C117.456 45.9 117.596 46.296 117.876 46.608C118.164 46.912 118.572 47.064 119.1 47.064C119.484 47.064 119.808 46.98 120.072 46.812C120.336 46.644 120.56 46.416 120.744 46.128L121.512 46.884C121.28 47.268 120.944 47.576 120.504 47.808C120.064 48.032 119.552 48.144 118.968 48.144ZM118.968 42.636C118.744 42.636 118.536 42.676 118.344 42.756C118.16 42.836 118 42.948 117.864 43.092C117.736 43.236 117.636 43.408 117.564 43.608C117.492 43.808 117.456 44.028 117.456 44.268V44.352H120.36V44.232C120.36 43.752 120.236 43.368 119.988 43.08C119.74 42.784 119.4 42.636 118.968 42.636ZM125.768 48.144C125.176 48.144 124.68 48.04 124.28 47.832C123.88 47.624 123.532 47.336 123.236 46.968L124.076 46.2C124.308 46.48 124.564 46.7 124.844 46.86C125.132 47.012 125.464 47.088 125.84 47.088C126.224 47.088 126.508 47.016 126.692 46.872C126.884 46.72 126.98 46.512 126.98 46.248C126.98 46.048 126.912 45.88 126.776 45.744C126.648 45.6 126.42 45.508 126.092 45.468L125.516 45.396C124.876 45.316 124.372 45.132 124.004 44.844C123.644 44.548 123.464 44.112 123.464 43.536C123.464 43.232 123.52 42.964 123.632 42.732C123.744 42.492 123.9 42.292 124.1 42.132C124.308 41.964 124.552 41.836 124.832 41.748C125.12 41.66 125.436 41.616 125.78 41.616C126.34 41.616 126.796 41.704 127.148 41.88C127.508 42.056 127.828 42.3 128.108 42.612L127.304 43.38C127.144 43.188 126.932 43.024 126.668 42.888C126.412 42.744 126.116 42.672 125.78 42.672C125.42 42.672 125.152 42.744 124.976 42.888C124.808 43.032 124.724 43.22 124.724 43.452C124.724 43.692 124.8 43.872 124.952 43.992C125.104 44.112 125.348 44.2 125.684 44.256L126.26 44.328C126.948 44.432 127.448 44.636 127.76 44.94C128.08 45.236 128.24 45.636 128.24 46.14C128.24 46.444 128.18 46.72 128.06 46.968C127.948 47.208 127.784 47.416 127.568 47.592C127.352 47.768 127.092 47.904 126.788 48C126.484 48.096 126.144 48.144 125.768 48.144ZM133.849 48V39.624H137.449C138.225 39.624 138.825 39.852 139.249 40.308C139.673 40.764 139.885 41.376 139.885 42.144C139.885 42.912 139.673 43.524 139.249 43.98C138.825 44.436 138.225 44.664 137.449 44.664H135.205V48H133.849ZM135.205 43.476H137.365C137.709 43.476 137.977 43.388 138.169 43.212C138.361 43.028 138.457 42.768 138.457 42.432V41.856C138.457 41.52 138.361 41.264 138.169 41.088C137.977 40.904 137.709 40.812 137.365 40.812H135.205V43.476ZM144.09 48.144C143.658 48.144 143.262 48.068 142.902 47.916C142.55 47.764 142.25 47.548 142.002 47.268C141.754 46.98 141.562 46.636 141.426 46.236C141.29 45.828 141.222 45.376 141.222 44.88C141.222 44.384 141.29 43.936 141.426 43.536C141.562 43.128 141.754 42.784 142.002 42.504C142.25 42.216 142.55 41.996 142.902 41.844C143.262 41.692 143.658 41.616 144.09 41.616C144.522 41.616 144.914 41.692 145.266 41.844C145.626 41.996 145.93 42.216 146.178 42.504C146.426 42.784 146.618 43.128 146.754 43.536C146.89 43.936 146.958 44.384 146.958 44.88C146.958 45.376 146.89 45.828 146.754 46.236C146.618 46.636 146.426 46.98 146.178 47.268C145.93 47.548 145.626 47.764 145.266 47.916C144.914 48.068 144.522 48.144 144.09 48.144ZM144.09 47.064C144.538 47.064 144.898 46.928 145.17 46.656C145.442 46.376 145.578 45.96 145.578 45.408V44.352C145.578 43.8 145.442 43.388 145.17 43.116C144.898 42.836 144.538 42.696 144.09 42.696C143.642 42.696 143.282 42.836 143.01 43.116C142.738 43.388 142.602 43.8 142.602 44.352V45.408C142.602 45.96 142.738 46.376 143.01 46.656C143.282 46.928 143.642 47.064 144.09 47.064ZM149.016 48V41.76H150.324V42.96H150.384C150.472 42.64 150.656 42.36 150.936 42.12C151.216 41.88 151.604 41.76 152.1 41.76H152.448V43.02H151.932C151.412 43.02 151.012 43.104 150.732 43.272C150.46 43.44 150.324 43.688 150.324 44.016V48H149.016ZM155.984 48C155.528 48 155.184 47.884 154.952 47.652C154.72 47.412 154.604 47.076 154.604 46.644V42.828H153.632V41.76H154.16C154.376 41.76 154.524 41.712 154.604 41.616C154.692 41.52 154.736 41.364 154.736 41.148V40.056H155.912V41.76H157.22V42.828H155.912V46.932H157.124V48H155.984ZM163.811 48C163.467 48 163.203 47.904 163.019 47.712C162.835 47.512 162.723 47.26 162.683 46.956H162.623C162.503 47.348 162.283 47.644 161.963 47.844C161.643 48.044 161.255 48.144 160.799 48.144C160.151 48.144 159.651 47.976 159.299 47.64C158.955 47.304 158.783 46.852 158.783 46.284C158.783 45.66 159.007 45.192 159.455 44.88C159.911 44.568 160.575 44.412 161.447 44.412H162.575V43.884C162.575 43.5 162.471 43.204 162.263 42.996C162.055 42.788 161.731 42.684 161.291 42.684C160.923 42.684 160.623 42.764 160.391 42.924C160.159 43.084 159.963 43.288 159.803 43.536L159.023 42.828C159.231 42.476 159.523 42.188 159.899 41.964C160.275 41.732 160.767 41.616 161.375 41.616C162.183 41.616 162.803 41.804 163.235 42.18C163.667 42.556 163.883 43.096 163.883 43.8V46.932H164.543V48H163.811ZM161.171 47.148C161.579 47.148 161.915 47.06 162.179 46.884C162.443 46.7 162.575 46.456 162.575 46.152V45.252H161.471C160.567 45.252 160.115 45.532 160.115 46.092V46.308C160.115 46.588 160.207 46.8 160.391 46.944C160.583 47.08 160.843 47.148 161.171 47.148ZM167.757 48C167.309 48 166.973 47.888 166.749 47.664C166.533 47.432 166.425 47.112 166.425 46.704V39.12H167.733V46.932H168.597V48H167.757Z" fill="#75889F"/>
<path d="M218.693 62.8613V48.9253C218.701 48.7637 218.667 48.6028 218.595 48.4582C218.523 48.3135 218.414 48.1899 218.28 48.0994L200.525 32.8215C200.314 32.6702 200.061 32.5889 199.802 32.5889C199.543 32.5889 199.29 32.6702 199.08 32.8215L181.324 48.0994C181.088 48.3134 180.941 48.6081 180.911 48.9253V62.8613C180.907 63.0741 180.963 63.2838 181.073 63.4663C181.182 63.6488 181.341 63.7969 181.53 63.8936C181.716 63.9899 181.928 64.0218 182.134 63.9845C182.339 63.9471 182.526 63.8426 182.666 63.6872L196.705 51.6092C196.919 51.4143 197.049 51.1444 197.068 50.8558C197.087 50.5673 196.994 50.2824 196.808 50.0608C196.613 49.8488 196.343 49.72 196.055 49.7008C195.767 49.6816 195.482 49.7735 195.26 49.9576L183.079 60.487V49.4414L199.699 35.0925L216.319 49.4414V62.8613C216.322 63.1616 216.442 63.4489 216.654 63.6612C216.867 63.8736 217.154 63.9941 217.454 63.9968C217.611 64.0058 217.767 63.9835 217.915 63.9309C218.063 63.8783 218.198 63.7967 218.314 63.6909C218.429 63.585 218.522 63.4569 218.587 63.3145C218.653 63.172 218.689 63.0179 218.693 62.8613Z" fill="#4183D7"/>
<path d="M199.802 33.1318L217.558 48.5131V62.4491L199.802 47.0678L191.75 40.1515L199.802 33.1318Z" fill="#CAE1FF"/>
<path d="M218.074 63.8943C217.888 63.9906 217.676 64.0225 217.471 63.9851C217.265 63.9478 217.078 63.8433 216.938 63.6879L199.286 48.4098C199.259 48.4098 199.232 48.3989 199.213 48.3796C199.194 48.3602 199.183 48.334 199.183 48.3066L191.131 41.3901C190.895 41.1762 190.747 40.8816 190.718 40.5644C190.71 40.4028 190.744 40.2419 190.816 40.0973C190.888 39.9526 190.997 39.8289 191.131 39.7385L199.183 32.7189C199.393 32.5677 199.646 32.4863 199.905 32.4863C200.165 32.4863 200.417 32.5677 200.628 32.7189L218.384 47.9969C218.62 48.2108 218.767 48.5055 218.796 48.8228V62.7588C218.709 63.2155 218.451 63.6216 218.074 63.8943ZM199.802 35.0932L193.402 40.6676L200.422 46.7582C200.449 46.7582 200.475 46.769 200.495 46.7884C200.514 46.8078 200.525 46.834 200.525 46.8614L216.422 60.591V49.5453L199.802 35.0932Z" fill="#4183D7"/>
<path d="M181.014 1.13847V15.0745C181.006 15.236 181.04 15.3969 181.112 15.5416C181.185 15.6863 181.293 15.8098 181.427 15.9002L199.183 31.1783C199.393 31.3295 199.646 31.4109 199.905 31.4109C200.165 31.4109 200.417 31.3295 200.628 31.1783L218.383 15.9002C218.62 15.6863 218.767 15.3917 218.796 15.0745V1.13847C218.8 0.925645 218.744 0.716007 218.635 0.533481C218.525 0.350955 218.367 0.202891 218.177 0.106172C217.992 0.00986932 217.78 -0.0221803 217.574 0.0151907C217.368 0.0525616 217.181 0.157185 217.042 0.312581L203.002 12.3905C202.789 12.5855 202.659 12.8554 202.639 13.144C202.62 13.4325 202.713 13.7174 202.899 13.939C203.094 14.1526 203.364 14.2825 203.653 14.3018C203.941 14.321 204.226 14.228 204.447 14.0422L216.629 3.51268V14.5583L200.009 28.9073L183.389 14.5583V1.13847C183.386 0.838143 183.265 0.550911 183.053 0.33854C182.841 0.126168 182.553 0.0056611 182.253 0.00296742C182.097 -0.00607209 181.94 0.01631 181.792 0.0688721C181.645 0.121434 181.509 0.203054 181.394 0.308927C181.278 0.414799 181.185 0.54272 181.12 0.685201C181.055 0.827682 181.019 0.981856 181.014 1.13847Z" fill="#4183D7"/>
<path d="M199.802 30.3526L182.047 15.0747V1.13867L199.802 16.4166L207.854 23.3331L199.802 30.3526Z" fill="#CAE1FF"/>
<path d="M181.634 0.106172C181.819 0.00986932 182.031 -0.0221803 182.237 0.0151907C182.442 0.0525616 182.63 0.157185 182.769 0.312581L200.422 15.5906C200.449 15.5906 200.475 15.6015 200.494 15.6209C200.514 15.6402 200.525 15.6665 200.525 15.6938L208.577 22.6102C208.813 22.8241 208.96 23.1188 208.99 23.4361C208.998 23.5976 208.964 23.7585 208.892 23.9032C208.819 24.0479 208.711 24.1715 208.577 24.2619L200.525 31.2815C200.314 31.4327 200.061 31.5141 199.802 31.5141C199.543 31.5141 199.29 31.4327 199.08 31.2815L181.324 16.0036C181.088 15.7896 180.941 15.4949 180.911 15.1777V1.24167C180.92 1.00522 180.991 0.775308 181.118 0.575696C181.245 0.376084 181.423 0.214033 181.634 0.106172ZM199.802 28.9073L206.202 23.3329L199.183 17.2423C199.155 17.2423 199.129 17.2314 199.11 17.212C199.09 17.1927 199.08 17.1665 199.08 17.1391L183.182 3.40947V14.4551L199.802 28.9073Z" fill="#4183D7"/>
<path d="M236.862 13.4232H222.926C222.765 13.4147 222.605 13.4472 222.461 13.5178C222.316 13.5885 222.192 13.6949 222.1 13.8268L206.822 31.19C206.671 31.3947 206.59 31.6424 206.59 31.8967C206.59 32.151 206.671 32.3985 206.822 32.6032L222.1 49.9664C222.316 50.1982 222.61 50.3419 222.926 50.37H236.862C237.073 50.3752 237.282 50.3212 237.464 50.2142C237.647 50.1071 237.796 49.9513 237.894 49.7642C237.99 49.583 238.022 49.3744 237.985 49.1727C237.947 48.9709 237.843 48.7879 237.688 48.6534L225.61 34.9239C225.413 34.7134 225.143 34.5856 224.856 34.5664C224.568 34.5472 224.284 34.6381 224.061 34.8206C223.847 35.0088 223.715 35.2744 223.696 35.5591C223.677 35.8439 223.771 36.1246 223.958 36.3401L234.488 48.2529H223.442L209.093 31.9994L223.442 15.7459H236.862C237.159 15.7459 237.444 15.6296 237.656 15.422C237.868 15.2144 237.991 14.9319 237.997 14.6351C238.005 14.4804 237.981 14.3258 237.927 14.1804C237.874 14.0351 237.792 13.902 237.686 13.789C237.58 13.676 237.452 13.5853 237.311 13.5225C237.169 13.4597 237.017 13.4259 236.862 13.4232Z" fill="#4183D7"/>
<path d="M207.648 31.9003L222.926 14.248H236.862L221.584 31.9003L214.667 39.9523L207.648 31.9003Z" fill="#CAE1FF"/>
<path d="M237.894 13.7393C237.99 13.9247 238.022 14.1368 237.985 14.3424C237.948 14.5479 237.843 14.7352 237.688 14.8748L222.41 32.527C222.41 32.5544 222.399 32.5806 222.379 32.6C222.36 32.6194 222.334 32.6302 222.306 32.6302L215.39 40.6822C215.176 40.9182 214.881 41.0655 214.564 41.0952C214.403 41.1034 214.242 41.0696 214.097 40.9972C213.952 40.9249 213.829 40.8164 213.738 40.6822L206.719 32.6302C206.567 32.4197 206.486 32.167 206.486 31.9077C206.486 31.6484 206.567 31.3957 206.719 31.1851L221.997 13.4295C222.211 13.1936 222.505 13.0462 222.823 13.0166H236.759C236.991 13.0395 237.215 13.1169 237.413 13.2424C237.61 13.368 237.775 13.5382 237.894 13.7393ZM209.093 31.9077L214.667 38.3079L220.758 31.2883C220.758 31.261 220.769 31.2347 220.788 31.2154C220.807 31.196 220.834 31.1851 220.861 31.1851L234.591 15.2877H223.545L209.093 31.9077Z" fill="#4183D7"/>
</svg>
