<svg width="85" height="56" viewBox="0 0 85 56" fill="none" xmlns="http://www.w3.org/2000/svg">
<path d="M60.5112 31.7962V31.8574C60.5112 35.8967 57.5269 38.8649 52.6772 38.8649C48.7604 38.8649 46.0559 37.3348 44.1909 35.1622L47.4862 32.0713C48.9782 33.7241 50.5326 34.6417 52.7397 34.6417C54.5426 34.6417 55.8172 33.6321 55.8172 32.0409C55.7933 31.9987 56.1688 29.2566 51.5583 29.2566H49.5689L48.8225 26.2572L55.8031 19.3451L53.0057 21.1169H45.4656V17.078H60.169V20.6276L54.6671 25.7987C57.6201 26.2885 60.5112 27.8181 60.5112 31.7962ZM46.8643 7.28337C46.8643 5.34409 48.2767 3.78322 50.2588 3.78322H52.4924L51.9077 4.0705C51.9342 9.3859 51.8008 10.0554 52.1456 10.8325L50.2836 10.832C48.3015 10.832 46.8643 9.24669 46.8643 7.30783V7.28337ZM50.2588 11.7226H52.2422V11.0193C52.3868 11.2665 52.5814 11.4585 52.8684 11.5926C53.4993 11.8879 53.0408 11.7023 71.134 11.7572V2.8931H70.1798V10.8177C70.1798 10.8177 53.6358 10.8805 53.3214 10.7413C53.0485 10.6203 52.9493 10.3435 52.9039 10.0486C52.8316 9.56983 52.8757 9.56097 52.8624 2.8931H50.2836C47.6449 2.8931 45.8484 4.95387 45.8484 7.30783V7.3323C45.8484 9.68584 47.6201 11.7226 50.2588 11.7226ZM78.1673 1.9532H76.0765C76.1219 1.27148 75.8019 0 77.2105 0H77.8837V0.654722C77.2318 0.702392 76.8567 0.498213 76.8567 1.01161V1.22887H78.1673V1.9532ZM80.584 11.8529C80.3295 11.8529 80.0707 11.8179 79.8085 11.747L80.0592 10.843C80.4908 10.9641 81.0425 10.9712 81.2701 10.5907C81.5357 10.1402 81.4408 9.98156 81.4549 2.8931H82.4092C82.3818 9.50993 82.475 9.6947 82.3198 10.4616C82.1367 11.3589 81.5849 11.8529 80.584 11.8529ZM52.8624 1.9532H51.9077V1.01372H52.8624V1.9532ZM73.8669 5.19475C74.3147 4.33458 75.2549 3.85578 76.216 3.84565V3.84396H77.758L77.213 4.11184V8.33041C76.4619 8.30848 75.9341 8.40087 75.2386 8.18319C74.289 7.88873 73.6457 7.1682 73.6457 6.12241C73.6457 5.78619 73.7193 5.47655 73.8669 5.19475ZM73.8669 8.52405C75.1094 9.39729 76.8037 9.25302 76.8922 9.26947L77.213 8.60673C77.1613 9.24922 77.3923 10.1469 76.7836 10.5966C76.269 10.9759 75.3515 10.9636 74.7852 10.8312C74.5508 10.7768 74.2822 10.6827 73.9798 10.5498L73.6816 11.4538C74.2865 11.6736 74.8648 11.8529 75.5068 11.8529C76.4375 11.8529 77.1134 11.6357 77.5351 11.2016C77.9564 10.7666 78.1673 10.1815 78.1673 9.44581V2.8931C76.9927 2.92938 76.1018 2.77624 75.0299 3.13988C72.1576 4.11395 72.1003 7.28379 73.8669 8.52405ZM50.9535 1.9532H49.9987V1.01372H50.9535V1.9532ZM41.0749 2.88297H42.0604V11.7044H41.2537L34.9065 3.76972L35.4677 5.05554V11.7044H34.4818V2.88297H35.4292L41.4902 10.4722L41.0749 9.3897V2.88297ZM3.85372 11.7673L0.000244141 2.88297H1.1269C1.18422 3.01965 4.25536 10.341 4.56675 11.0835L4.46923 10.114L7.51514 2.88297H8.60287L4.74983 11.7673H3.85372ZM20.9302 2.88297H21.9414V11.704H20.9302V2.88297ZM31.7768 7.3188C31.7768 9.32262 30.3177 10.9354 28.2693 10.9354C26.2209 10.9354 24.7358 9.29731 24.7358 7.29391V7.26818C24.7358 5.26478 26.1957 3.65202 28.2437 3.65202C30.2921 3.65202 31.7768 5.29009 31.7768 7.29391V7.3188ZM28.2693 2.73195C25.5425 2.73195 23.6861 4.86148 23.6861 7.29391V7.3188C23.6861 9.75081 25.5168 11.8555 28.2437 11.8555C30.9705 11.8555 32.8269 9.72592 32.8269 7.29391V7.26818C32.8269 4.83659 30.9961 2.73195 28.2693 2.73195ZM19.2616 9.30997V9.33486C19.2616 10.8468 17.9814 11.8301 16.202 11.8301C14.7811 11.8301 13.6164 11.364 12.541 10.4186L13.1681 9.68795C14.1027 10.5194 14.9988 10.935 16.241 10.935C17.4442 10.935 18.2376 10.3056 18.2376 9.43568V9.41079C18.2376 6.94883 12.8995 8.57298 12.8995 5.18884V5.16395C12.8995 3.77773 14.1412 2.75684 15.844 2.75684C17.1495 2.75684 18.0841 3.12259 18.993 3.84101L18.4044 4.60921C16.3727 2.97916 13.9106 3.6035 13.9106 5.07579V5.1011C13.9106 5.93258 14.3713 6.39873 16.3432 6.81468C18.3403 7.24329 19.2616 7.96171 19.2616 9.30997ZM10.9879 11.7044H9.97676V2.88339H10.9879V11.7044ZM69.8466 12.6962H70.8013V13.6357H69.8466V12.6962ZM67.9376 12.6962H68.8923V13.6357H67.9376V12.6962ZM8.00319 34.4273H16.3004V38.4978H0.19743V34.7644C8.24358 28.0299 11.2022 26.7137 11.2022 23.7792C11.2022 21.9737 9.98959 20.9946 8.27993 20.9946C6.60107 20.9946 5.45089 21.9121 3.83447 23.8704L0.47717 21.2089C2.62227 18.3322 4.70534 16.7714 8.5909 16.7714C13.0984 16.7714 16.0827 19.3725 16.0827 23.3814V23.4422C16.0827 28.469 12.2241 30.0894 5.60744 35.3483L4.68353 36.0502L8.00319 34.4273ZM79.8693 27.8489C79.8693 31.5208 77.1959 34.5197 73.3407 34.5197C69.486 34.5197 66.7506 31.4596 66.7506 27.7873V27.7261C66.7506 24.0543 69.4244 21.0557 73.2787 21.0557C77.133 21.0557 79.8693 24.1159 79.8693 27.7873V27.8489ZM73.3407 16.7106C66.6266 16.7106 61.7457 21.6982 61.7457 27.7873V27.8489C61.7457 33.9384 66.5637 38.8649 73.2787 38.8649C79.9937 38.8649 84.8738 33.8768 84.8738 27.7873V27.7261C84.8738 21.6371 80.0553 16.7106 73.3407 16.7106Z" fill="#94A7BC"/>
<path d="M29.308 15.3018L30.4103 16.3429L29.3525 17.4275L28.2506 16.3864" fill="#29367B"/>
<path d="M31.8302 16.3864L32.9316 17.4275L33.9894 16.3429L32.8876 15.3018" fill="#B1AEB3"/>
<path d="M30.2786 17.7532L31.137 18.5636L31.96 17.7191L31.1024 16.9087" fill="#D0DA33"/>
<path d="M33.4244 18.2171L34.2825 19.0279L35.1054 18.1834L34.2474 17.3726" fill="#71BA44"/>
<path d="M28.8755 19.0448L29.7335 19.8556L30.5565 19.011L29.6993 18.2002" fill="#D0DA33"/>
<path d="M31.7545 19.1429L32.6121 19.9537L33.4355 19.1091L32.5775 18.2983" fill="#27B8BE"/>
<path d="M30.6283 20.1144L31.2318 20.6848L31.811 20.0904L31.2074 19.52" fill="#71BA44"/>
<path d="M32.9052 20.5622L33.5087 21.1326L34.0883 20.5382L33.4847 19.9683" fill="#58B75E"/>
<path d="M37.8777 16.043L39.7499 15.7044L40.0926 17.5476L38.2203 17.8861L37.8777 16.043Z" fill="#3088C8"/>
<path d="M35.4342 16.8154L36.9363 16.5442L37.2108 18.0231L35.7088 18.2943L35.4342 16.8154Z" fill="#1E3871"/>
<path d="M38.3379 18.876L39.8399 18.6044L40.1148 20.0832L38.6128 20.3548L38.3379 18.876Z" fill="#27B8BE"/>
<path d="M36.2664 19.0928L37.436 18.8814L37.6498 20.0325L36.4802 20.2438L36.2664 19.0928Z" fill="#D0DA33"/>
<path d="M38.542 21.2803L39.7116 21.0689L39.9255 22.2204L38.7559 22.4318L38.542 21.2803Z" fill="#B1AEB3"/>
<path d="M34.5139 19.561L35.684 19.3496L35.8979 20.5011L34.7278 20.7125L34.5139 19.561Z" fill="#27B8BE"/>
<path d="M36.6368 21.0693L37.8065 20.858L38.0204 22.0095L36.8507 22.2208L36.6368 21.0693Z" fill="#71BA44"/>
<path d="M35.1461 21.2085L35.9691 21.0597L36.1196 21.8696L35.2967 22.0185L35.1461 21.2085Z" fill="#B1AEB3"/>
<path d="M36.7269 22.8828L37.5495 22.7345L37.6996 23.5441L36.877 23.6924L36.7269 22.8828Z" fill="#58B75E"/>
<path d="M43.4462 22.0811L42.6279 23.7735L44.3474 24.5785L45.1648 22.8864" fill="#29367B"/>
<path d="M41.006 21.2988L40.3499 22.6564L41.7289 23.3022L42.385 21.9447" fill="#27B8BE"/>
<path d="M42.1345 24.6431L41.4784 26.001L42.8578 26.6465L43.514 25.2889" fill="#71BA44"/>
<path d="M40.3275 23.625L39.8168 24.6822L40.8908 25.185L41.402 24.1279" fill="#D0DA33"/>
<path d="M40.8726 26.71L40.3615 27.7671L41.4351 28.27L41.9466 27.2128" fill="#D0DA33"/>
<path d="M38.6275 22.9956L38.1163 24.0528L39.1904 24.5556L39.7015 23.4985" fill="#3088C8"/>
<path d="M39.4534 25.4414L38.9423 26.4986L40.0159 27.0014L40.5275 25.9443" fill="#B1AEB3"/>
<path d="M38.1615 24.6958L37.8018 25.4395L38.5571 25.7931L38.9169 25.0497" fill="#71BA44"/>
<path d="M38.0875 27.7051L38.4463 26.9615L39.2014 27.3159L38.8426 28.0595L38.0875 27.7051Z" fill="#27B8BE"/>
<path d="M44.3722 30.1846L42.7031 31.0857L43.6189 32.7288L45.2879 31.8277" fill="#3088C8"/>
<path d="M42.8586 28.145L41.5198 28.8681L42.2542 30.186L43.593 29.4629" fill="#27B8BE"/>
<path d="M41.7863 31.5068L40.447 32.2299L41.1819 33.5482L42.5207 32.8251" fill="#27B8BE"/>
<path d="M40.9256 29.6401L39.8832 30.2033L40.4546 31.2293L41.4979 30.6665" fill="#29367B"/>
<path d="M39.5342 32.4561L38.4913 33.0192L39.0632 34.0452L40.106 33.4824" fill="#58B75E"/>
<path d="M39.9212 28.1509L38.8784 28.7136L39.4503 29.7404L40.4935 29.1773" fill="#1E3871"/>
<path d="M39.1374 30.6099L38.0946 31.173L38.6665 32.199L39.7093 31.6362" fill="#D0DA33"/>
<path d="M38.5326 29.2617L37.7991 29.6578L38.2016 30.3796L38.9347 29.9839" fill="#B1AEB3"/>
<path d="M37.4164 31.2656L36.6829 31.6618L37.0849 32.3835L37.8185 31.9878" fill="#27B8BE"/>
<path d="M38.1825 38.9131L38.4155 37.0529L40.305 37.2831L40.072 39.1433L38.1825 38.9131Z" fill="#71BA44"/>
<path d="M38.5902 36.0723L38.7777 34.5802L40.2931 34.7654L40.1056 36.2575L38.5902 36.0723Z" fill="#1E3871"/>
<path d="M35.7214 38.1812L35.9089 36.6891L37.4248 36.8744L37.2373 38.3664L35.7214 38.1812Z" fill="#27B8BE"/>
<path d="M36.5111 35.8857L36.6568 34.7239L37.8369 34.8678L37.6912 36.0296L36.5111 35.8857Z" fill="#71BA44"/>
<path d="M33.7079 37.3667L33.8535 36.2049L35.0336 36.3488L34.888 37.5106L33.7079 37.3667Z" fill="#B1AEB3"/>
<path d="M36.5804 34.0967L36.7265 32.9345L37.907 33.0788L37.7609 34.241L36.5804 34.0967Z" fill="#B1AEB3"/>
<path d="M34.4833 35.6377L34.6293 34.4759L35.8098 34.6202L35.6638 35.782L34.4833 35.6377Z" fill="#71BA44"/>
<path d="M35.1886 33.8975L35.2911 33.0802L36.121 33.1815L36.0185 33.9987L35.1886 33.8975Z" fill="#B1AEB3"/>
<path d="M33.0905 34.8784L33.1929 34.0612L34.0232 34.1624L33.9208 34.9797L33.0905 34.8784Z" fill="#B1AEB3"/>
<path d="M32.7871 40.7103L31.3919 39.4351L30.0967 40.8086L31.492 42.0835" fill="#D0DA33"/>
<path d="M32.5299 14.4608L31.1347 13.1855L29.8395 14.5591L31.2348 15.834" fill="#71BA44"/>
<path d="M34.2762 38.6524L33.1568 37.6294L32.1178 38.7313L33.2372 39.7539" fill="#27B8BE"/>
<path d="M30.6967 38.7115L29.5769 37.6885L28.538 38.7904L29.6573 39.813" fill="#71BA44"/>
<path d="M32.2248 37.3189L31.353 36.5225L30.5442 37.3801L31.4155 38.1766" fill="#3088C8"/>
<path d="M29.0713 36.9068L28.2 36.1104L27.3911 36.968L28.2628 37.7649" fill="#D0DA33"/>
<path d="M33.3439 35.9107L32.4722 35.1143L31.6633 35.9719L32.5346 36.7684" fill="#D0DA33"/>
<path d="M30.7259 35.9537L29.8541 35.1572L29.0453 36.0149L29.9166 36.8113" fill="#B1AEB3"/>
<path d="M31.835 34.964L31.2221 34.4033L30.6532 35.007L31.2661 35.5672" fill="#1E3871"/>
<path d="M29.5512 34.5529L28.9382 33.9927L28.3689 34.5959L28.9818 35.1562" fill="#B1AEB3"/>
<path d="M22.415 37.6841L24.2818 37.3151L24.6551 39.1524L22.7884 39.5214L22.415 37.6841Z" fill="#3088C8"/>
<path d="M25.2885 37.1621L26.7857 36.8662L27.0853 38.3403L25.588 38.6363L25.2885 37.1621Z" fill="#27B8BE"/>
<path d="M22.3523 35.1479L23.8495 34.8517L24.1493 36.3258L22.6522 36.6221L22.3523 35.1479Z" fill="#71BA44"/>
<path d="M24.8154 35.1602L25.9814 34.9297L26.2146 36.0775L25.0487 36.308L24.8154 35.1602Z" fill="#D0DA33"/>
<path d="M26.5596 34.6631L27.7255 34.4326L27.9588 35.5809L26.7929 35.8113L26.5596 34.6631Z" fill="#29367B"/>
<path d="M24.4114 33.1895L25.5773 32.959L25.8105 34.1068L24.6446 34.3373L24.4114 33.1895Z" fill="#3088C8"/>
<path d="M26.314 33.3003L27.1344 33.1384L27.2982 33.9459L26.4778 34.1078L26.314 33.3003Z" fill="#71BA44"/>
<path d="M24.7064 31.6509L25.5263 31.4887L25.6905 32.296L24.8707 32.4583L24.7064 31.6509Z" fill="#B1AEB3"/>
<path d="M18.9867 33.2063L19.7758 31.5012L18.0431 30.7241L17.2539 32.4293" fill="#27B8BE"/>
<path d="M21.4393 33.9487L22.0724 32.5806L20.6827 31.9575L20.0492 33.3256" fill="#D0DA33"/>
<path d="M20.2541 30.6234L20.8876 29.2553L19.4974 28.6318L18.8644 30.0003" fill="#3088C8"/>
<path d="M20.9955 31.1279L21.4882 30.0624L22.5697 30.5489L22.077 31.6144L20.9955 31.1279Z" fill="#27B8BE"/>
<path d="M23.5268 34.2754L24.0199 33.2102L22.9378 32.7251L22.4446 33.7903" fill="#B1AEB3"/>
<path d="M20.4012 28.0513L20.8941 26.9859L21.9756 27.4725L21.4827 28.5379L20.4012 28.0513Z" fill="#29367B"/>
<path d="M22.7079 31.728L23.2008 30.6626L24.2822 31.1493L23.7893 32.2147L22.7079 31.728Z" fill="#58B75E"/>
<path d="M21.8403 29.2979L22.3336 28.2326L23.4148 28.7196L22.9216 29.7849L21.8403 29.2979Z" fill="#D0DA33"/>
<path d="M24.226 30.5055L24.5729 29.7563L23.8115 29.4146L23.4646 30.1642" fill="#1E3871"/>
<path d="M23.9018 28.2428L24.2486 27.4931L23.4873 27.1519L23.1404 27.9015" fill="#71BA44"/>
<path d="M17.9231 25.1195L19.5772 24.1914L18.6336 22.5635L16.98 23.4916" fill="#27B8BE"/>
<path d="M19.4718 27.1337L20.7986 26.3891L20.0415 25.083L18.7151 25.828" fill="#71BA44"/>
<path d="M20.4875 23.7547L21.8143 23.0101L21.0572 21.7036L19.7308 22.4486" fill="#1E3871"/>
<path d="M21.3793 25.607L22.4119 25.0269L21.8229 24.0103L20.7899 24.5899" fill="#3088C8"/>
<path d="M22.7233 22.7696L23.7559 22.1895L23.1669 21.1729L22.1339 21.7525" fill="#71BA44"/>
<path d="M22.4082 27.0796L23.4416 26.5L22.8526 25.4829L21.8192 26.063" fill="#27B8BE"/>
<path d="M23.151 24.6089L24.184 24.0293L23.595 23.0122L22.562 23.5923" fill="#D0DA33"/>
<path d="M23.7786 25.9467L24.5053 25.5388L24.0909 24.8237L23.3641 25.2312" fill="#B1AEB3"/>
<path d="M24.8603 23.9247L25.5874 23.5168L25.173 22.8018L24.4458 23.2097" fill="#71BA44"/>
<path d="M21.8695 17.9507L22.0715 16.0874L23.9641 16.287L23.7621 18.1502L21.8695 17.9507Z" fill="#71BA44"/>
<path d="M21.9263 20.4746L22.0884 18.9801L23.6072 19.1404L23.445 20.6349L21.9263 20.4746Z" fill="#B1AEB3"/>
<path d="M24.7583 18.3193L24.9205 16.8244L26.4393 16.9847L26.2771 18.4796L24.7583 18.3193Z" fill="#27B8BE"/>
<path d="M24.382 20.3364L24.5084 19.1724L25.6907 19.2973L25.5643 20.4613L24.382 20.3364Z" fill="#D0DA33"/>
<path d="M27.1565 18.8052L27.2824 17.6411L28.4648 17.7655L28.3389 18.9296L27.1565 18.8052Z" fill="#3088C8"/>
<path d="M24.3398 22.123L24.4663 20.9591L25.6486 21.084L25.5222 22.248L24.3398 22.123Z" fill="#27B8BE"/>
<path d="M26.412 20.5454L26.5384 19.3814L27.7208 19.5063L27.5943 20.6703L26.412 20.5454Z" fill="#71BA44"/>
<path d="M26.1246 21.9927L26.2135 21.1739L27.0454 21.2617L26.9565 22.0805L26.1246 21.9927Z" fill="#1E3871"/>
<path d="M28.2056 20.9756L28.2939 20.1567L29.1263 20.2441L29.0379 21.0629L28.2056 20.9756Z" fill="#B1AEB3"/>
<path d="M37.1881 28.7855C36.1915 28.2194 34.8048 28.0548 33.368 28.5737C32.7401 28.8078 32.1113 29.2166 31.5809 29.617C31.2469 27.6195 31.4098 25.7654 31.4877 24.8546C31.4881 24.8496 31.4941 24.847 31.4988 24.85C32.2161 25.295 32.0151 26.5387 31.8645 26.8943C31.8615 26.9015 31.8722 26.9061 31.8774 26.9002C32.7713 25.8591 32.3346 24.7095 32.1511 24.4184C32.1178 24.3657 32.3201 24.5256 32.486 24.7352C33.111 25.5199 32.8222 26.4011 32.892 26.3805C32.8937 26.3801 32.8958 26.3805 32.8967 26.3784C33.312 25.5747 33.1785 24.5555 32.3243 23.8194C32.2854 23.7869 32.4377 23.8358 32.486 23.8527C33.2145 24.102 33.5943 24.842 33.5892 25.5017C33.5892 25.6469 34.0811 24.2623 32.892 23.5587C32.6695 23.4275 32.4411 23.3553 32.2918 23.3376C32.1755 23.3254 32.9287 23.2136 33.4578 23.5671C33.7757 23.7785 33.8591 24.0341 33.8509 23.9624C33.7585 23.0356 32.6507 22.6694 31.9792 22.9474C31.9082 22.9824 32.2435 22.4922 32.892 22.5302C33.0169 22.5374 33.1323 22.5639 33.2247 22.6074C33.2311 22.6103 33.2371 22.6019 33.2324 22.5964C32.7427 22.0442 31.9368 22.0328 31.5091 22.6715C31.5061 22.6757 31.4997 22.6757 31.4971 22.6715C31.335 22.3851 31.1994 22.0185 31.1408 21.6725C31.1267 21.584 31.0967 22.1007 30.7717 22.6715C30.7691 22.6757 30.7631 22.6757 30.7601 22.6715C30.3311 22.0311 29.5261 22.0438 29.0368 22.5964C29.0316 22.6019 29.0376 22.6103 29.0445 22.6074C29.3713 22.4542 29.9885 22.4994 30.2977 22.9369C30.3016 22.9428 30.296 22.9504 30.2892 22.9474C29.5971 22.6605 28.5098 23.0499 28.4178 23.9624C28.4174 23.97 28.4277 23.9742 28.4315 23.9675C28.4623 23.9105 28.5385 23.789 28.6809 23.6658C29.2344 23.1849 30.1048 23.3241 29.9769 23.3376C29.6369 23.379 28.9388 23.6776 28.6809 24.3602C28.47 24.9179 28.6732 25.6523 28.6809 25.4705C28.6877 24.85 29.0483 24.0189 29.9384 23.8071C29.9453 23.8055 29.9504 23.8147 29.9449 23.8194C28.5616 25.0187 29.3982 26.4914 29.3854 26.375C29.3426 25.8996 29.3071 25.0508 30.1065 24.41C30.1125 24.4053 30.1219 24.4117 30.1177 24.4184C29.9342 24.7095 29.4979 25.8591 30.3914 26.9002C30.3965 26.9061 30.4072 26.9015 30.4042 26.8943C30.2541 26.5387 30.0531 25.295 30.77 24.85C30.7747 24.847 30.7806 24.8496 30.7811 24.8546C30.8593 25.7654 31.0223 27.6195 30.6878 29.617C29.5518 28.7606 28.4332 28.1991 26.9926 28.2615C26.268 28.2928 25.5807 28.5007 25.0806 28.7855C25.0627 28.7956 25.0759 28.8213 25.0952 28.8154C27.1907 28.1548 29.0043 28.9563 30.6904 30.34C29.8388 31.0719 29.0659 31.838 28.6167 32.0692C28.5119 31.9279 28.3301 31.8465 28.1312 31.8891C27.7566 31.9705 27.6672 32.4333 27.8703 32.6324C28.6065 33.3567 29.7575 31.9195 31.1344 30.718C32.4595 31.8731 33.6636 33.3563 34.3984 32.6324C34.457 32.5746 34.5251 32.3839 34.49 32.2325C34.4014 31.8545 33.892 31.7452 33.652 32.0692C33.22 31.8545 32.4616 31.0985 31.5784 30.34C33.2765 28.9441 35.0704 28.1649 37.1732 28.8154C37.1928 28.8213 37.2061 28.7956 37.1881 28.7855Z" fill="#727A82"/>
<path d="M30.4829 48.5592H31.0291V43.7349H30.4829V48.5592ZM16.1704 48.0214L15.3171 45.9581C16.1999 45.2211 17.2954 45.3565 18.0003 45.9581L17.1469 48.0214H16.1704ZM13.1592 48.0214C12.7297 48.0087 12.4277 48.0614 12.0291 47.9378C10.553 47.478 10.9542 45.4539 12.6061 45.4539H13.1592V48.0214ZM28.3455 48.0214C27.4656 47.9948 26.6731 48.1745 26.2697 47.4839C26.3493 47.1388 26.3056 46.8292 26.3176 45.2455H25.7714V47.0671C25.7714 48.404 24.1357 48.3171 23.7499 47.5143C23.5951 47.1916 23.6896 47.0566 23.6614 45.2455H23.1147V47.1076C23.1147 47.7151 22.7293 48.0214 22.1929 48.0214H21.1347V45.2455H20.5885V48.0214H17.7205L18.6765 45.7699C18.1342 45.3025 17.3792 44.8625 16.6555 44.8625C15.9202 44.8625 15.1798 45.2835 14.634 45.7699L15.5968 48.0214H13.7054V44.9097H12.8315C11.5962 44.9097 10.5709 45.61 10.5709 46.7579C10.5709 48.8009 13.1121 48.5491 13.1592 48.5592C13.1506 48.6255 13.2272 49.087 12.9132 49.319C12.6198 49.5358 12.0958 49.5295 11.7694 49.4536C11.6351 49.4219 11.4816 49.3683 11.3088 49.292L11.1381 49.8096C11.4846 49.9353 11.8152 50.0383 12.1826 50.0383C13.2237 50.0383 13.7054 49.5261 13.7054 48.66V48.5592C22.6203 48.504 22.3568 48.6858 22.9 48.3913C23.107 48.2795 23.2743 48.1294 23.4017 47.9408C23.5339 48.1559 23.7135 48.3242 23.9411 48.4453C24.4189 48.698 25.1477 48.6744 25.5905 48.4584C25.8201 48.3466 25.9968 48.1741 26.1196 47.9408C26.3304 48.296 26.6577 48.5242 27.3147 48.5529V48.5592H28.8917V43.7349H28.3455V48.0214ZM77.3598 47.783C76.8764 48.8971 75.2125 48.9292 74.7309 47.7661C74.5893 47.4248 74.5893 47.0203 74.7309 46.6739C75.3139 45.2489 77.4727 45.6581 77.4727 47.2219C77.4727 47.4232 77.4351 47.6105 77.3598 47.783ZM72.061 47.783C71.6431 48.7406 70.3838 48.8824 69.7255 48.2133C69.1853 47.6624 69.2011 46.7651 69.7225 46.2238C70.1473 45.7788 70.8021 45.707 71.303 45.9108C72.0926 46.2356 72.3557 47.1076 72.061 47.783ZM58.7764 48.0214C58.3585 48.0087 58.0556 48.0627 57.6595 47.9345C56.2211 47.4683 56.5641 45.4472 58.2365 45.4472H58.7764V48.0214ZM79.7256 48.0214H77.8482C78.4342 46.7528 77.524 45.2658 76.0248 45.2658C74.6441 45.2658 73.6783 46.6613 74.2424 48.0214H72.549C73.12 46.79 72.2547 45.2658 70.726 45.2658C69.3444 45.2658 68.3795 46.6617 68.9436 48.0214H67.2092V43.7349H66.6629V48.0214H64.9221C64.8921 47.4691 65.0491 46.652 64.5803 46.1361C64.2625 45.7826 63.9088 45.6725 63.4263 45.6725H61.0091L62.0374 43.7349H61.4433L60.3945 45.6657C60.4283 45.88 60.4941 46.0475 60.6404 46.2099C63.3724 46.2327 63.5507 46.1534 63.8737 46.2875C64.1269 46.3909 64.2813 46.5794 64.3348 46.8085C64.3998 47.0844 64.3669 47.292 64.3758 48.0214H59.3226V44.9097H58.462C57.0145 44.9097 56.2087 45.7589 56.2087 46.7376C56.2087 47.964 57.2087 48.5592 58.462 48.5592H69.2987C70.1024 49.4131 71.4553 49.3405 72.194 48.5592H74.5975C75.3986 49.4105 76.7503 49.3435 77.4932 48.5592H80.2722V43.7349H79.7256V48.0214ZM81.863 48.5592H82.4092V43.7349H81.863V48.5592ZM41.6139 49.743H42.1751V49.1907H41.6139V49.743ZM46.9546 48.0214L46.1008 45.9581C46.9768 45.2266 48.0705 45.3502 48.7844 45.9581L47.9311 48.0214H46.9546ZM50.826 48.0214H48.5047L49.4603 45.7699C48.9166 45.3 48.1591 44.8625 47.4392 44.8625C46.7014 44.8625 45.9631 45.2856 45.4177 45.7699L46.3806 48.0214H44.3462V44.9097H43.7996V48.6735C43.7996 49.149 43.7645 49.5004 43.2808 49.5004C43.1683 49.5004 43.1088 49.4907 43.001 49.4599L42.8577 49.9779C43.3141 50.1011 43.8531 50.0598 44.1208 49.6717C44.3629 49.3203 44.3343 48.8351 44.3462 48.5592H51.3727V43.7349H50.826V48.0214ZM9.35573 45.3801C8.74834 44.7262 8.04515 44.9633 7.80561 44.9097V45.4472C8.20426 45.4624 8.38862 45.4037 8.65895 45.5311C8.8865 45.6391 9.04733 45.8134 9.1132 46.0589C9.1872 46.3411 9.14571 46.5613 9.15769 48.0214H6.59683V48.5592H9.70391C9.68124 46.5217 9.76037 46.3057 9.61836 45.8505C9.56147 45.667 9.47379 45.51 9.35573 45.3801ZM39.6168 49.7493H40.178V49.1971H39.6168V49.7493ZM36.2954 48.0214C35.8784 48.0087 35.5751 48.0627 35.1786 47.9345C33.7384 47.4679 34.0853 45.4472 35.7556 45.4472H36.2954V48.0214ZM42.1678 44.9097H41.6216V48.0214H39.5595V44.9097H39.0132V48.0214H36.8416V44.9097C36.1547 44.9308 35.1298 44.7726 34.3424 45.4303C33.226 46.363 33.5138 48.5592 35.9814 48.5592H42.1678V44.9097ZM38.6599 49.7493H39.2211V49.1971H38.6599V49.7493ZM2.15479 43.7349H1.5936V44.2871H2.15479V43.7349ZM58.3632 43.7349H57.802V44.2871H58.3632V43.7349ZM36.8391 43.7349H36.2779V44.2871H36.8391V43.7349ZM5.37736 49.7493H5.93855V49.1971H5.37736V49.7493ZM35.8822 43.7349H35.321V44.2871H35.8822V43.7349ZM3.11164 43.7349H2.55045V44.2871H3.11164V43.7349ZM4.42051 49.7493H4.9817V49.1971H4.42051V49.7493ZM2.56799 48.0214C2.1518 48.0087 1.84682 48.0627 1.4516 47.9345C0.0139746 47.4696 0.353597 45.4472 2.02861 45.4472H2.56799V48.0214ZM5.83204 44.9097H5.28582V48.0214H3.11421V44.9097C2.45934 44.9296 1.93879 44.8452 1.32499 45.0473C0.810419 45.2177 0.389955 45.5311 0.160688 46.0121C-0.0779887 46.5124 -0.0347873 47.1494 0.185069 47.5577C0.580725 48.2943 1.40839 48.5592 2.2536 48.5592H5.83204V44.9097ZM52.9634 48.5592H53.5096V43.7349H52.9634V48.5592ZM59.3196 43.7349H58.7584V44.2871H59.3196V43.7349Z" fill="#94A7BC"/>
<path d="M0.5354 52.0928H1.22106V54.024L3.07701 52.0928H3.91879L2.29682 53.7443L3.99108 55.9334H3.16084L1.82887 54.205L1.22106 54.8197V55.9334H0.5354" fill="#94A7BC"/>
<path d="M4.61646 52.0928H5.30212V55.9334H4.61646V52.0928Z" fill="#94A7BC"/>
<path d="M6.35767 52.0928H6.99328L9.08363 54.7484V52.0928H9.75774V55.9334H9.18372L7.03221 53.201V55.9334H6.35767" fill="#94A7BC"/>
<path d="M10.6069 54.0239V54.0129C10.6069 52.9376 11.4432 52.0264 12.619 52.0264C13.2991 52.0264 13.7174 52.2133 14.1186 52.5478L13.6841 53.0582C12.6276 52.1732 11.3264 52.8106 11.3264 54.0019V54.0129C11.3264 54.803 11.8555 55.3844 12.6524 55.3844C13.0206 55.3844 13.3551 55.2692 13.5947 55.0937V54.3748H12.5968V53.788H14.2581V55.4008C12.8628 56.5765 10.6069 55.9724 10.6069 54.0239Z" fill="#94A7BC"/>
<path d="M16.6597 55.3187C18.4793 55.3187 18.4575 52.707 16.6597 52.707H15.8906V55.3187H16.6597ZM15.205 52.0928H16.6597C19.4434 52.0928 19.4058 55.9334 16.6597 55.9334H15.205V52.0928Z" fill="#94A7BC"/>
<path d="M22.7365 54.0239V54.0129C22.7365 53.2666 22.1847 52.6469 21.4097 52.6469C20.635 52.6469 20.0944 53.2557 20.0944 54.0019V54.0129C20.0944 54.7592 20.6462 55.3793 21.4208 55.3793C22.1959 55.3793 22.7365 54.7701 22.7365 54.0239ZM19.3754 54.0239V54.0129C19.3754 52.9321 20.2227 52.0264 21.4208 52.0264C22.6193 52.0264 23.4555 52.9211 23.4555 54.0019V54.0129C23.4555 55.0937 22.6086 55.999 21.4097 55.999C20.2116 55.999 19.3754 55.1047 19.3754 54.0239Z" fill="#94A7BC"/>
<path d="M24.3074 52.0928H25.0375L26.2249 53.9089L27.4119 52.0928H28.142V55.9334H27.4564V53.1791L26.2249 54.9897H26.2027L24.9819 53.19V55.9334H24.3074" fill="#94A7BC"/>
<path d="M34.0078 54.0239V54.0129C34.0078 53.2666 33.456 52.6469 32.6809 52.6469C31.9063 52.6469 31.3656 53.2557 31.3656 54.0019V54.0129C31.3656 54.7592 31.9174 55.3793 32.692 55.3793C33.4671 55.3793 34.0078 54.7701 34.0078 54.0239ZM30.6466 54.0239V54.0129C30.6466 52.9321 31.494 52.0264 32.692 52.0264C33.8906 52.0264 34.7268 52.9211 34.7268 54.0019V54.0129C34.7268 55.0937 33.8794 55.999 32.6809 55.999C31.4828 55.999 30.6466 55.1047 30.6466 54.0239Z" fill="#94A7BC"/>
<path d="M35.5789 52.0928H38.4828V52.7074H36.2645V53.7553H38.2321V54.3695H36.2645V55.9334H35.5789" fill="#94A7BC"/>
<path d="M40.6469 55.3738L41.0592 54.8908C41.4326 55.2093 41.806 55.3903 42.2911 55.3903C42.7145 55.3903 42.9823 55.1983 42.9823 54.9073V54.8967C42.9823 54.0386 40.8025 54.6242 40.8025 53.1624V53.1515C40.8025 51.9728 42.4754 51.672 43.5508 52.5208L43.1829 53.0308C42.2855 52.3723 41.4886 52.6313 41.4886 53.0916V53.1025C41.4886 53.9484 43.6679 53.4135 43.6679 54.8305V54.8414C43.6679 56.188 41.732 56.3268 40.6469 55.3738Z" fill="#94A7BC"/>
<path d="M46.75 54.4084L46.0755 52.872L45.4065 54.4084H46.75ZM45.7688 52.0654H46.404L48.1209 55.9334H47.3963L47.0007 55.0062H45.1554L44.7546 55.9334H44.0519L45.7688 52.0654Z" fill="#94A7BC"/>
<path d="M48.5244 54.3041V52.0928H49.2101V54.2767C49.2101 54.9901 49.5835 55.374 50.1964 55.374C50.8042 55.374 51.1777 55.012 51.1777 54.3041V52.0928H51.8633V54.2712C51.8633 55.4179 51.2055 55.9941 50.1853 55.9941C49.1707 55.9941 48.5244 55.4179 48.5244 54.3041Z" fill="#94A7BC"/>
<path d="M54.3214 55.3187C56.141 55.3187 56.1196 52.707 54.3214 52.707H53.5524V55.3187H54.3214ZM52.8667 52.0928H54.3214C57.1051 52.0928 57.0675 55.9334 54.3214 55.9334H52.8667V52.0928Z" fill="#94A7BC"/>
<path d="M57.2635 52.0928H57.9492V55.9334H57.2635V52.0928Z" fill="#94A7BC"/>
<path d="M63.028 54.4084L62.3534 52.872L61.6845 54.4084H63.028ZM62.0468 52.0654H62.682L64.3989 55.9334H63.6743L63.2786 55.0062H61.4334L61.0326 55.9334H60.3298L62.0468 52.0654Z" fill="#94A7BC"/>
<path d="M66.7357 53.9966C67.2263 53.9966 67.5386 53.7443 67.5386 53.3545V53.3436C67.5386 52.9323 67.2374 52.707 66.7301 52.707H65.7327V53.9966H66.7357ZM65.047 52.0928H66.7857C67.6104 52.0928 68.2353 52.5016 68.2353 53.3052C68.2195 53.3474 68.3166 54.1945 67.3042 54.4796L68.3577 55.9334H67.5492L66.5907 54.5944C66.5158 54.5944 65.6886 54.5944 65.7327 54.5944V55.9334H65.047V52.0928Z" fill="#94A7BC"/>
<path d="M71.56 54.4084L70.8854 52.872L70.2165 54.4084H71.56ZM70.5788 52.0654H71.2144L72.9309 55.9334H72.2063L71.8106 55.0062H69.9654L69.5646 55.9334H68.8618L70.5788 52.0654Z" fill="#94A7BC"/>
<path d="M75.3902 55.3356C75.8586 55.3356 76.1426 55.1542 76.1426 54.8087V54.7977C76.1426 54.4742 75.8808 54.2818 75.3402 54.2818H74.2533V55.3356H75.3902ZM75.1896 53.7114C75.6297 53.7114 75.9253 53.5414 75.9253 53.19V53.1791C75.9253 52.8774 75.6802 52.691 75.2396 52.691H74.2533V53.7114H75.1896ZM73.5787 52.0928H75.329C76.0151 52.0928 76.611 52.4092 76.611 53.0694C76.5951 53.1116 76.6811 53.6153 76.0536 53.9363C76.5109 54.0898 76.8282 54.348 76.8282 54.869V54.88C76.8282 55.5659 76.2542 55.9334 75.3846 55.9334H73.5787V52.0928Z" fill="#94A7BC"/>
<path d="M77.6771 52.0928H78.3628V55.9334H77.6771V52.0928Z" fill="#94A7BC"/>
<path d="M81.7155 54.4084L81.041 52.872L80.372 54.4084H81.7155ZM80.7343 52.0654H81.3695L83.0864 55.9334H82.3618L81.9661 55.0062H80.1209L79.7201 55.9334H79.0173L80.7343 52.0654Z" fill="#94A7BC"/>
</svg>
