<svg width="219" height="40" viewBox="0 0 219 40" fill="none" xmlns="http://www.w3.org/2000/svg">
<path d="M204.223 37.0704C203.714 36.5608 202.949 35.7965 202.44 35.2869C201.93 34.7774 201.166 34.013 200.656 33.5035L199.51 32.357L197.726 30.5735C197.217 30.064 196.452 29.2997 195.943 28.7901L194.796 27.6436C194.287 27.134 193.523 26.3697 193.013 25.8602C192.503 25.3506 191.739 24.5863 191.23 24.0767L189.956 22.9302C189.446 22.4207 188.682 21.6563 188.172 21.1468C187.663 20.6372 186.898 19.8729 186.389 19.3633L185.242 18.2169C184.733 17.7073 183.968 16.943 183.459 16.4334C182.949 15.9239 182.185 15.1595 181.675 14.65C181.166 14.1404 180.784 14.2678 180.784 15.0321V18.4716C180.784 19.236 180.911 19.8729 181.038 20.0003C181.166 20.1277 181.675 20.6372 182.185 21.1468L183.331 22.2933C183.841 22.8028 184.605 23.5672 185.115 24.0767C185.624 24.5863 186.389 25.3506 186.898 25.8602L188.045 27.0067C188.554 27.5162 189.319 28.2805 189.828 28.7901C190.338 29.2997 191.102 30.064 191.612 30.5735L192.758 31.72C193.268 32.2296 194.032 32.9939 194.542 33.5035C195.051 34.013 195.816 34.7774 196.325 35.2869L197.472 36.4334C197.981 36.943 198.491 37.4525 198.618 37.5799C198.745 37.7073 199.51 37.8347 200.147 37.8347H203.586C204.478 37.9621 204.733 37.5799 204.223 37.0704Z" fill="#0055B8"/>
<path d="M208.937 32.357C208.427 31.8474 207.663 31.0831 207.153 30.5735C206.644 30.064 205.879 29.2996 205.37 28.7901L204.223 27.6436C203.714 27.134 202.949 26.3697 202.44 25.8602C201.93 25.3506 201.166 24.5863 200.656 24.0767L199.51 22.9302C199 22.4207 198.236 21.6563 197.726 21.1468C197.217 20.6372 196.453 19.8729 195.943 19.3633L194.796 18.2168C194.287 17.7073 193.523 16.943 193.013 16.4334C192.503 15.9239 191.739 15.1595 191.23 14.65L190.083 13.5035C189.574 12.9939 188.809 12.2296 188.3 11.72C187.79 11.2105 187.026 10.4461 186.516 9.93659L181.803 5.22321C181.293 4.71366 180.911 4.84105 180.911 5.60538V9.04487C180.911 9.8092 181.293 10.8283 181.803 11.3379L183.459 12.9939C183.968 13.5035 184.733 14.2678 185.242 14.7774C185.752 15.2869 186.516 16.0512 187.026 16.5608L188.172 17.7073C188.682 18.2168 189.446 18.9812 189.956 19.4907L191.739 21.2742L192.886 22.4207C193.395 22.9302 194.16 23.6946 194.669 24.2041C195.179 24.7137 195.943 25.478 196.453 25.9875L197.599 27.134C198.109 27.6436 198.873 28.4079 199.382 28.9175C199.892 29.427 200.656 30.1914 201.166 30.7009L202.312 31.8474C202.822 32.357 203.586 33.1213 204.096 33.6309C204.605 34.1404 205.37 34.9047 205.879 35.4143L207.535 37.0703C208.045 37.5799 209.064 37.9621 209.828 37.9621H213.268C214.032 37.9621 214.16 37.5799 213.65 37.0703L208.937 32.357Z" fill="#0055B8"/>
<path d="M180.784 36.6878C180.784 37.4521 181.421 38.089 182.185 38.089H184.86C185.624 38.089 185.752 37.7069 185.242 37.1973L183.459 35.4139C182.949 34.9043 182.185 34.14 181.675 33.6304C181.166 33.1209 180.784 33.2483 180.784 34.0126V36.6878Z" fill="#0055B8"/>
<path d="M207.026 27.134C207.535 27.6436 208.427 27.6436 208.937 27.134L215.306 20.7646C215.816 20.2551 216.198 19.236 216.198 18.4716V15.0321C216.198 14.2678 215.816 14.1404 215.306 14.65L205.879 24.0767C205.37 24.5863 205.37 25.478 205.879 25.9875L207.026 27.134Z" fill="#86A5DC"/>
<path d="M180.784 27.8983C180.784 28.6627 180.911 29.2996 181.038 29.427C181.166 29.5544 181.675 30.0639 182.185 30.5735L183.331 31.72C183.841 32.2295 184.605 32.9939 185.115 33.5034C185.624 34.013 186.389 34.7773 186.898 35.2869L188.045 36.4334C188.554 36.9429 189.064 37.4525 189.191 37.5799C189.319 37.7072 190.083 37.8346 190.72 37.8346H194.159C194.924 37.8346 195.051 37.4525 194.542 36.9429C194.032 36.4334 193.268 35.669 192.758 35.1595C192.249 34.6499 191.484 33.8856 190.975 33.376L189.828 32.2295C189.319 31.72 188.554 30.9557 188.045 30.4461C187.535 29.9365 186.771 29.1722 186.261 28.6627L185.115 27.5162C184.605 27.0066 183.841 26.2423 183.331 25.7327C182.822 25.2232 182.058 24.4588 181.548 23.9493C181.038 23.4397 180.656 23.5671 180.656 24.3315V27.8983H180.784Z" fill="#0055B8"/>
<path d="M210.593 28.7901C210.083 29.2997 210.083 30.1914 210.593 30.7009L215.306 35.4143C215.816 35.9239 216.198 35.7965 216.198 35.0321V24.4589C216.198 23.6946 215.816 23.5672 215.306 24.0767L210.593 28.7901Z" fill="#86A5DC"/>
<path d="M202.312 22.4207C202.822 22.9302 203.714 22.9302 204.223 22.4207L215.306 11.3379C215.816 10.8283 216.198 9.8092 216.198 9.04487V5.60538C216.198 4.84105 215.816 4.71366 215.306 5.22321L201.166 19.3633C200.656 19.8729 200.656 20.7646 201.166 21.2742L202.312 22.4207Z" fill="#86A5DC"/>
<path d="M192.886 12.8663C193.395 13.3759 194.287 13.3759 194.796 12.8663L204.223 3.43957C204.733 2.93002 204.605 2.54785 203.841 2.54785H200.402C199.637 2.54785 198.618 2.93002 198.109 3.43957L191.739 9.809C191.23 10.3186 191.23 11.2103 191.739 11.7198L192.886 12.8663Z" fill="#86A5DC"/>
<path d="M188.172 8.15295C188.682 8.6625 189.573 8.6625 190.083 8.15295L194.796 3.43957C195.306 2.93002 195.179 2.54785 194.414 2.54785H183.841C183.077 2.54785 182.949 2.93002 183.459 3.43957L188.172 8.15295Z" fill="#86A5DC"/>
<path d="M197.599 17.7071C198.109 18.2167 199 18.2167 199.51 17.7071L213.65 3.56701C214.159 3.05746 214.032 2.67529 213.268 2.67529H209.828C209.064 2.67529 208.045 3.05746 207.535 3.56701L196.452 14.6498C195.943 15.1594 195.943 16.0511 196.452 16.5606L197.599 17.7071Z" fill="#86A5DC"/>
<path d="M59.6371 16.1786L59.7645 17.1977H59.0002C57.3442 17.1977 56.1977 16.306 56.0703 14.65H51.6117C51.3569 14.65 50.083 14.7774 50.083 16.8156C50.083 18.9812 50.8473 20.1277 52.8856 20.1277C53.9047 20.1277 55.0512 20.0003 55.8155 19.8729L56.8346 20.6372C55.6881 20.892 54.1594 21.1468 52.8856 21.1468C50.3378 21.1468 49.1913 19.7455 49.1913 17.0703V16.943C49.1913 14.2678 50.8473 13.7582 51.3569 13.7582H55.8155C55.3059 11.72 54.0321 9.93659 52.2486 9.93659C51.4843 9.93659 50.5926 10.064 49.9556 10.4461L50.4652 9.29965C51.1021 9.04487 51.7391 8.91748 52.376 8.91748C54.7964 8.91748 56.5798 11.0831 56.962 14.3952C57.2168 16.306 58.7454 16.1786 59.0002 16.1786H59.6371ZM53.7773 16.1786H52.8856V18.0895H53.7773V16.1786Z" fill="#5C6670"/>
<path d="M59.5098 16.1786H62.1849C61.6754 15.5416 61.2932 14.7773 61.2932 13.5034C61.2932 11.083 62.6945 9.93652 64.4779 9.93652C66.6435 9.93652 67.5352 11.4652 67.5352 13.5034C67.5352 16.0512 66.5161 17.0703 64.4779 17.0703H59.6372L59.5098 16.1786ZM66.6435 13.5034C66.6435 11.72 65.7518 10.8282 64.4779 10.8282C63.204 10.8282 62.3123 11.72 62.3123 13.5034C62.3123 15.2868 63.204 16.0512 64.3505 16.0512H64.4779C66.0066 16.1786 66.6435 15.4142 66.6435 13.5034Z" fill="#5C6670"/>
<path d="M69.7009 17.0701V4.84077L70.5926 4.71338V17.0701H69.7009Z" fill="#5C6670"/>
<path d="M84.0958 17.0703C83.2041 17.0703 82.185 16.8155 81.1659 16.1786C80.6564 16.8155 80.0194 17.0703 79.2551 17.0703H79.1277C78.3634 17.0703 77.4716 16.9429 76.7073 16.4334V16.8155C76.7073 19.6181 75.5608 20.8919 73.013 20.8919H72.7583L72.3761 20.0002C72.6309 20.0002 72.7583 20.0002 73.013 20.0002C75.0513 20.0002 75.943 18.8537 75.943 16.6881V8.91743L76.8347 8.79004V15.4142C77.7264 15.9238 78.4907 16.1786 79.2551 16.1786H79.1277C80.529 16.1786 81.0385 15.1595 81.0385 13.376V8.91743L81.9302 8.79004V13.7582C81.9302 14.5225 81.8028 15.0321 81.6755 15.5416C82.4398 16.0512 83.3315 16.306 83.9685 16.306H84.0958V17.0703ZM81.0385 19.2359H81.9302V21.1467H81.0385V19.2359Z" fill="#5C6670"/>
<path d="M83.9684 16.1783C85.3697 16.1783 85.8792 15.2866 85.8792 13.3758V4.84077L86.7709 4.71338V13.6306C86.7709 15.9236 85.8792 17.0701 83.9684 17.0701V16.1783Z" fill="#5C6670"/>
<path d="M89.1913 17.0701V4.84077L90.2104 4.71338V17.0701H89.1913Z" fill="#5C6670"/>
<path d="M96.4524 20.1276C96.7072 20.1276 96.8346 20.1276 97.0894 20.1276C99.1276 20.1276 100.019 18.9811 100.019 16.8155C99.5098 16.9429 99.1276 17.0703 98.6181 17.0703C96.962 17.0703 95.6881 15.9238 95.6881 13.5034C95.6881 11.083 97.0894 9.93652 98.7454 9.93652C99.5098 10.0639 100.019 10.1913 100.784 10.4461V16.9429C100.784 19.6181 99.6372 21.0193 97.0894 21.0193H96.8346L96.4524 20.1276ZM99.8919 11.2104C99.3824 11.083 99.1276 10.9556 98.6181 10.9556C97.5989 10.9556 96.4524 11.72 96.4524 13.5034C96.4524 15.4142 97.4715 16.0512 98.4907 16.0512C99.0002 16.0512 99.3824 15.9238 99.8919 15.669V11.2104Z" fill="#5C6670"/>
<path d="M107.026 19.2359L106.771 21.0193H106.134L105.879 16.1786H107.281C106.771 15.5416 106.389 14.7773 106.389 13.5034C106.389 11.083 107.79 9.93652 109.574 9.93652C111.739 9.93652 112.758 11.4652 112.758 13.5034C112.758 14.2677 112.631 14.9047 112.376 15.5416C113.14 16.0512 113.905 16.1786 114.669 16.1786H114.796L114.924 17.1977H114.796C113.905 17.1977 112.886 16.9429 111.867 16.306C111.357 16.8155 110.593 17.1977 109.574 17.1977H106.898L107.026 19.2359ZM111.739 13.5034C111.739 11.72 110.847 10.8282 109.574 10.8282C108.3 10.8282 107.408 11.72 107.408 13.5034C107.408 15.2868 108.3 16.0512 109.446 16.0512H109.574C111.102 16.1786 111.739 15.4142 111.739 13.5034Z" fill="#5C6670"/>
<path d="M116.452 16.1784V5.60515L117.344 5.35037V13.6306C119.255 9.5542 122.058 8.53509 123.204 8.53509C125.115 8.53509 126.644 9.93636 126.644 12.8663C126.644 14.395 126.261 15.5415 125.624 16.1784H128.3L128.427 17.1975H114.669L114.542 16.1784H116.452ZM117.089 16.1784H122.949C124.733 16.1784 125.37 14.9045 125.37 12.8663C125.37 10.5733 124.478 9.5542 122.949 9.5542C121.675 9.42681 118.618 11.7198 117.089 16.1784ZM122.44 4.84082H123.331V6.75165H122.44V4.84082Z" fill="#5C6670"/>
<path d="M133.14 17.0701C132.249 17.0701 131.23 16.8153 130.21 16.1784C129.701 16.8153 128.937 17.0701 128.172 17.0701L128.045 16.051C129.446 16.051 129.956 15.1593 129.956 13.2485V8.91725L130.847 8.78987V13.758C130.847 14.5223 130.72 15.0319 130.593 15.5415C131.357 16.051 132.249 16.3058 132.886 16.3058H133.013V17.0701H133.14ZM130.083 4.84082H130.975V6.75165H130.083V4.84082Z" fill="#5C6670"/>
<path d="M133.14 16.1783C134.542 16.1783 135.051 15.2866 135.051 13.3758V4.84077L135.943 4.71338V13.6306C135.943 15.9236 135.051 17.0701 133.14 17.0701V16.1783Z" fill="#5C6670"/>
<path d="M138.236 17.0701V4.84077L139.255 4.71338V17.0701H138.236Z" fill="#5C6670"/>
<path d="M145.879 19.2357L145.624 21.0191H144.987L144.733 16.051H146.134C145.624 15.414 145.242 14.6497 145.242 13.3758C145.242 10.9554 146.643 9.80892 148.427 9.80892C150.593 9.80892 151.612 11.3376 151.612 13.3758C151.612 14.1401 151.484 14.7771 151.229 15.414C151.994 15.9236 152.758 16.051 153.522 16.051H153.65C155.051 16.051 155.561 15.0318 155.561 13.2484V4.84077L156.452 4.71338V13.6306C156.452 15.9236 155.561 17.0701 153.65 17.0701C152.758 17.0701 151.739 16.8153 150.72 16.1783C150.21 16.6879 149.446 17.0701 148.427 17.0701H145.752L145.879 19.2357ZM150.593 13.5032C150.593 11.7197 149.701 10.828 148.427 10.828C147.153 10.828 146.261 11.7197 146.261 13.5032C146.261 15.2866 147.153 16.051 148.3 16.051H148.427C149.956 16.1783 150.593 15.414 150.593 13.5032Z" fill="#5C6670"/>
<path d="M160.401 17.0701C159.637 17.0701 158.618 16.8153 158.618 14.6497V4.84077L159.51 4.71338V14.5223C159.51 15.9236 160.019 16.051 160.529 16.051H162.058L162.185 17.0701H160.401Z" fill="#5C6670"/>
<path d="M162.058 16.1785H164.223C163.586 15.5415 163.204 14.395 163.204 12.8664C163.204 9.93643 164.733 8.53516 166.644 8.53516C167.663 8.53516 168.682 8.91732 169.319 10.1912L168.682 10.8282C168.172 9.80904 167.535 9.55426 166.644 9.55426C165.115 9.55426 164.223 10.5734 164.223 12.8664C164.223 15.032 164.988 16.1785 166.771 16.1785H169.574L169.701 17.1976H162.312L162.058 16.1785Z" fill="#5C6670"/>
<path d="M16.962 23.5669L13.9047 32.9936H12.8856L10.3378 25.3503L7.79006 32.9936H6.77095L3.71362 23.5669H4.86012L7.2805 31.465L9.82827 23.5669H10.8474L13.3952 31.465L15.9429 23.5669H16.962Z" fill="#5C6670"/>
<path d="M23.5862 29.4267C23.5862 32.484 21.8028 33.121 20.2741 33.121C18.7455 33.121 16.962 32.484 16.962 29.4267C16.962 26.3694 18.7455 25.7324 20.2741 25.7324C21.8028 25.8598 23.5862 26.4968 23.5862 29.4267ZM22.5671 29.4267C22.5671 27.5159 21.8028 26.7515 20.2741 26.7515C18.6181 26.7515 17.9811 27.5159 17.9811 29.4267C17.9811 31.3375 18.7455 32.1018 20.2741 32.1018C21.9302 32.2292 22.5671 31.3375 22.5671 29.4267Z" fill="#5C6670"/>
<path d="M25.7519 27.1337V32.9936H24.7328V26.4968C25.115 26.3694 26.5162 25.8599 28.1723 25.8599V26.7516C27.2806 26.879 26.3888 27.0064 25.7519 27.1337Z" fill="#5C6670"/>
<path d="M30.2104 23.1846H29.1913V32.9935H30.2104V23.1846Z" fill="#5C6670"/>
<path d="M34.9238 25.8598C35.5607 25.8598 36.0703 25.9872 36.7072 26.1146V23.312H37.7263V30.9553C37.7263 31.4649 37.4716 33.1209 34.7964 33.1209C33.6499 33.1209 31.6117 32.6114 31.6117 29.4267C31.6117 26.4967 33.3951 25.8598 34.9238 25.8598ZM34.7964 32.2292C36.0703 32.2292 36.7072 31.847 36.7072 30.9553V27.1337C36.1977 26.8789 35.5607 26.7515 34.9238 26.7515C33.3951 26.7515 32.6308 27.5158 32.6308 29.4267C32.6308 31.9744 33.9047 32.2292 34.7964 32.2292Z" fill="#5C6670"/>
<path d="M49.9557 29.4267C49.9557 32.484 48.1723 33.121 46.5162 33.121C44.8602 33.121 43.2041 32.484 43.2041 29.4267C43.2041 26.3694 44.9875 25.7324 46.5162 25.7324C48.0449 25.7324 49.9557 26.4968 49.9557 29.4267ZM48.9366 29.4267C48.9366 27.5159 48.1723 26.7515 46.6436 26.7515C44.9875 26.7515 44.3506 27.5159 44.3506 29.4267C44.3506 31.3375 45.1149 32.1018 46.6436 32.1018C48.1723 32.2292 48.9366 31.3375 48.9366 29.4267Z" fill="#5C6670"/>
<path d="M52.5034 25.6054V25.9876H54.4143V26.8793H52.5034V32.9939H51.4843V26.8793H50.2104V25.9876H51.4843V25.6054C51.4843 23.0576 53.2678 23.0576 53.7773 23.0576C54.0321 23.0576 54.2869 23.0576 54.4143 23.185V24.0767C54.2869 24.0767 54.1595 24.0767 53.9047 24.0767C53.2678 23.9493 52.5034 23.9493 52.5034 25.6054Z" fill="#5C6670"/>
<path d="M65.3697 30.5732C65.3697 32.1018 64.0958 33.1209 61.9302 33.1209C60.6563 33.1209 59.7646 32.8662 59.1277 32.484V31.3375C59.6372 31.7197 60.529 32.1018 61.9302 32.1018C63.0767 32.1018 64.3506 31.847 64.3506 30.5732C64.3506 27.7706 59.1277 29.1719 59.1277 25.9872C59.1277 24.7133 60.0194 23.312 62.4398 23.312C63.4589 23.312 64.2232 23.5668 64.8602 23.8216V24.8407C64.3506 24.5859 63.5863 24.2037 62.5672 24.2037C61.0385 24.2037 60.1468 24.7133 60.1468 25.8598C60.0194 28.1528 65.3697 27.0063 65.3697 30.5732Z" fill="#5C6670"/>
<path d="M71.8665 25.9873L68.9366 33.758C68.2996 35.4141 67.4079 35.7962 66.6436 35.7962C66.3888 35.7962 66.134 35.6688 66.0066 35.6688V34.7771C66.134 34.7771 66.3888 34.9045 66.6436 34.9045C67.6627 34.9045 68.1722 32.9937 68.1722 32.9937L65.4971 25.9873H66.6436L68.6818 31.5924L70.72 25.9873H71.8665Z" fill="#5C6670"/>
<path d="M77.2169 31.2102C77.2169 32.4841 76.1978 33.121 74.5417 33.121C73.65 33.121 72.8857 32.8662 72.3761 32.6115V31.5923C73.013 31.9745 73.7774 32.2293 74.5417 32.2293C75.306 32.2293 76.1978 32.1019 76.1978 31.2102C76.1978 29.2994 72.3761 30.4459 72.3761 27.8981C72.3761 26.879 73.013 25.8599 74.9239 25.8599C75.6882 25.8599 76.3251 26.1146 76.7073 26.242V27.2611C76.3251 27.0064 75.6882 26.7516 74.9239 26.7516C74.1595 26.7516 73.2678 26.879 73.2678 27.7707C73.3952 29.2994 77.2169 28.4076 77.2169 31.2102Z" fill="#5C6670"/>
<path d="M79.892 31.2104C79.892 31.9747 80.1468 32.2295 80.9111 32.2295C81.2933 32.2295 81.548 32.1021 81.6754 32.1021V33.1212C81.4207 33.1212 81.1659 33.1212 80.7837 33.1212C80.1468 33.1212 78.8729 32.9938 78.8729 31.083V26.8792H77.599V25.9874H78.8729V23.9492H79.892V25.9874H81.6754V26.8792H79.7646V31.2104H79.892Z" fill="#5C6670"/>
<path d="M88.6817 29.5541C88.6817 29.8089 88.6817 30.0636 88.6817 30.0636H83.4588C83.5862 31.4649 84.3505 32.1018 85.7518 32.1018C86.7709 32.1018 87.6626 31.9745 88.1722 31.5923V32.6114C87.5352 32.9936 86.6435 33.121 85.6244 33.121C84.0957 33.121 82.3123 32.484 82.3123 29.5541C82.3123 28.7897 82.1849 25.7324 85.497 25.7324C88.8091 25.8598 88.6817 29.2993 88.6817 29.5541ZM87.6626 29.1719C87.6626 28.7897 87.5352 26.7515 85.6244 26.7515C84.2231 26.7515 83.5862 27.3885 83.5862 29.1719H87.6626Z" fill="#5C6670"/>
<path d="M100.019 28.4078V32.9938H99.0003V28.4078C99.0003 27.7708 98.8729 26.8791 97.2168 26.8791C96.4525 26.8791 95.6882 27.1339 95.1786 27.2613C95.306 27.6434 95.4334 28.0256 95.4334 28.5352V33.1211H94.4143V28.5352C94.4143 27.8982 94.2869 27.0065 92.6308 27.0065C91.9939 27.0065 91.357 27.1339 90.9748 27.2613V33.2485H89.9557V26.7517C90.3379 26.6243 91.4844 26.1148 92.8856 26.1148C93.65 26.1148 94.2869 26.3696 94.7965 26.7517C95.306 26.4969 96.3251 26.1148 97.4716 26.1148C99.0003 25.86 100.019 26.7517 100.019 28.4078Z" fill="#5C6670"/>
<path d="M113.777 32.9936H112.376L111.484 31.9745C110.847 32.6115 109.956 33.121 108.809 33.121C106.644 33.121 105.752 31.465 105.752 30.4459C105.752 29.5542 106.007 28.535 107.663 27.6433C107.28 27.1338 106.771 26.3694 106.771 25.7325C106.771 24.586 107.79 23.5669 108.937 23.5669C110.21 23.5669 111.102 24.4586 111.102 25.6051C111.102 26.6242 110.593 27.2612 109.319 27.8981L111.357 30.3185C111.612 29.8089 111.866 29.172 111.994 28.9172H112.886C112.758 29.5542 112.503 30.3185 111.994 31.2102L113.777 32.9936ZM110.847 31.2102L108.3 28.2803C106.771 29.0446 106.771 29.9363 106.771 30.3185C106.771 30.828 107.153 32.1019 108.809 32.1019C109.701 32.1019 110.465 31.7198 110.847 31.2102ZM107.79 25.6051C107.79 25.9873 108.3 26.6242 108.682 27.1338C109.956 26.4968 110.21 26.1147 110.21 25.6051C110.21 24.9682 109.701 24.586 109.064 24.586C108.3 24.4586 107.79 24.9682 107.79 25.6051Z" fill="#5C6670"/>
<path d="M125.115 30.5732C125.115 32.1018 123.841 33.1209 121.675 33.1209C120.401 33.1209 119.51 32.8662 118.873 32.484V31.3375C119.382 31.7197 120.274 32.1018 121.675 32.1018C122.822 32.1018 124.096 31.847 124.096 30.5732C124.096 27.7706 118.873 29.1719 118.873 25.9872C118.873 24.7133 119.765 23.312 122.185 23.312C123.204 23.312 123.968 23.5668 124.605 23.8216V24.8407C124.096 24.5859 123.331 24.2037 122.312 24.2037C120.784 24.2037 119.892 24.7133 119.892 25.8598C119.892 28.1528 125.115 27.0063 125.115 30.5732Z" fill="#5C6670"/>
<path d="M132.886 29.4267C132.886 32.484 131.102 33.121 129.573 33.121C128.045 33.121 126.261 32.484 126.261 29.4267C126.261 26.3694 128.045 25.7324 129.573 25.7324C130.975 25.8598 132.886 26.4968 132.886 29.4267ZM131.739 29.4267C131.739 27.5159 130.975 26.7515 129.446 26.7515C127.79 26.7515 127.153 27.5159 127.153 29.4267C127.153 31.3375 127.917 32.1018 129.446 32.1018C131.102 32.2292 131.739 31.3375 131.739 29.4267Z" fill="#5C6670"/>
<path d="M135.433 25.6054V25.9876H137.344V26.8793H135.433V32.9939H134.414V26.8793H133.14V25.9876H134.414V25.6054C134.414 23.0576 136.198 23.0576 136.707 23.0576C136.962 23.0576 137.217 23.0576 137.344 23.185V24.0767C137.217 24.0767 137.089 24.0767 136.835 24.0767C136.198 23.9493 135.433 23.9493 135.433 25.6054Z" fill="#5C6670"/>
<path d="M139.892 31.2104C139.892 31.9747 140.147 32.2295 140.911 32.2295C141.293 32.2295 141.548 32.1021 141.675 32.1021V33.1212C141.421 33.2486 141.038 33.2486 140.784 33.2486C140.147 33.2486 138.873 33.1212 138.873 31.2104V27.0066H137.599V26.1149H138.873V24.0767H139.892V26.1149H141.803V27.0066H139.892V31.2104Z" fill="#5C6670"/>
<path d="M152.249 25.9873L149.956 32.9937H148.809L147.153 27.7707L145.624 32.9937H144.478L142.185 25.9873H143.204L145.115 31.465L146.771 25.9873H147.663L149.319 31.465L151.23 25.9873H152.249Z" fill="#5C6670"/>
<path d="M158.618 28.7898V30.9554C158.618 32.8662 156.58 33.2484 155.688 33.2484C154.796 33.2484 152.631 32.9936 152.631 30.9554C152.631 28.6624 155.688 28.6624 156.325 28.6624C156.962 28.6624 157.472 28.7898 157.472 28.7898C157.472 27.5159 156.707 27.0063 155.433 27.0063C154.414 27.0063 153.65 27.2611 153.395 27.3885V26.3694C153.905 26.242 154.669 25.9872 155.561 25.9872C157.599 25.8598 158.618 26.8789 158.618 28.7898ZM157.599 29.5541C157.599 29.5541 157.089 29.4267 156.325 29.4267C155.433 29.4267 153.777 29.5541 153.777 30.828C153.777 31.9745 154.796 32.1019 155.688 32.1019C156.58 32.1019 157.599 31.8471 157.599 30.828V29.5541Z" fill="#5C6670"/>
<path d="M161.039 27.1337V32.9936H160.019V26.4968C160.402 26.3694 161.803 25.8599 163.459 25.8599V26.7516C162.44 26.879 161.548 27.0064 161.039 27.1337Z" fill="#5C6670"/>
<path d="M170.21 29.5541C170.21 29.8089 170.21 30.0636 170.21 30.0636H164.987C165.115 31.4649 165.879 32.1018 167.28 32.1018C168.3 32.1018 169.191 31.9745 169.701 31.5923V32.6114C169.064 32.9936 168.172 33.121 167.153 33.121C165.624 33.121 163.841 32.484 163.841 29.5541C163.841 28.7897 163.714 25.7324 167.026 25.7324C170.338 25.8598 170.21 29.2993 170.21 29.5541ZM169.064 29.1719C169.064 28.7897 168.937 26.7515 167.026 26.7515C165.624 26.7515 164.987 27.3885 164.987 29.1719H169.064Z" fill="#5C6670"/>
</svg>
